<?xml version="1.0" encoding="UTF-8"?>
<!DOCTYPE svg PUBLIC "-//W3C//DTD SVG 1.0//EN" "http://www.w3.org/TR/2001/REC-SVG-20010904/DTD/svg10.dtd">
<!-- Creator: CorelDRAW X7 -->
<svg xmlns="http://www.w3.org/2000/svg" xml:space="preserve" width="2.10642in" height="0.316874in" version="1.0" style="shape-rendering:geometricPrecision; text-rendering:geometricPrecision; image-rendering:optimizeQuality; fill-rule:evenodd; clip-rule:evenodd"
viewBox="0 0 552 83"
 xmlns:xlink="http://www.w3.org/1999/xlink">
 <defs>
  <style type="text/css">
   <![CDATA[
    .fil0 {fill:#FEFEFE}
    .fil1 {fill:#1C1B17}
    .fil2 {fill:#F28E1C}
    .fil3 {fill:#FEFEFE;fill-rule:nonzero}
    .fil4 {fill:#868282;fill-rule:nonzero}
   ]]>
  </style>
 </defs>
 <g id="Layer_x0020_1">
  <metadata id="CorelCorpID_0Corel-Layer"/>
  <polygon class="fil0" points="45,33 0,16 3,78 50,76 "/>
  <g id="_295915008">
   <path class="fil0" d="M29 57c-1,3 6,5 7,5 -3,2 -18,-5 -17,-7 3,0 6,4 8,1 3,-7 5,-15 8,-22 3,-7 2,-4 0,-10 -1,-1 -6,-9 -5,-9 2,-2 10,9 14,8 9,-2 20,-14 29,-10 1,0 2,0 2,1 0,0 0,1 0,1l-10 4c-4,2 -9,3 -13,5l-13 5c-1,1 -4,12 -5,14 -1,1 -4,13 -5,14z"/>
   <path class="fil0" d="M21 0c2,0 15,6 16,7 12,6 21,9 1,1l-15 -6c1,2 5,9 6,11 0,0 -1,0 -1,0l-5 -10c0,-1 -1,-2 -2,-3z"/>
  </g>
  <path class="fil1" d="M38 30c-1,3 -4,11 -4,13 -1,1 -4,13 -5,14 -1,3 6,5 7,5 -3,2 -18,-5 -17,-7 3,0 6,4 8,1 3,-7 5,-15 8,-22 1,-2 2,-4 2,-5l1 1z"/>
  <path class="fil2" d="M37 29c0,-1 -1,-1 -2,-5 -1,-1 -6,-9 -5,-9 2,-2 10,9 14,8 9,-2 20,-14 29,-10 1,0 2,0 2,1 0,0 0,1 0,1l-10 4c-4,2 -9,3 -13,5l-13 5c0,0 -1,1 -1,1l-1 -1z"/>
  <polygon class="fil0" points="16,83 44,81 44,78 16,80 "/>
  <g id="_295916208">
   <path class="fil3" d="M76 34l0 15 13 0c1,0 1,0 2,-1 0,0 0,-1 0,-2l0 -9c0,-1 0,-1 0,-2 -1,0 -1,-1 -2,-1l-13 0zm-5 -5l18 0c2,0 4,1 5,2 2,2 3,4 3,6l0 9c0,3 -1,4 -3,6 -1,2 -3,2 -5,2l-13 0 0 13c0,1 0,2 -1,2 0,1 -1,1 -2,1 0,0 -1,0 -2,-1 0,0 0,-1 0,-2l0 -38z"/>
   <path id="1" class="fil3" d="M108 43l0 3 5 -4c1,-1 1,-1 2,-1 1,-1 2,-1 3,-1l3 0c3,0 4,1 6,2 2,2 2,4 2,6l0 1c0,1 0,2 0,2 -1,1 -2,1 -2,1 -1,0 -2,0 -2,-1 -1,0 -1,-1 -1,-2l0 -1c0,-1 0,-1 -1,-2 0,0 -1,-1 -2,-1l-3 0c0,0 -1,0 -1,1 0,0 -1,0 -1,0l-8 7 0 14c0,1 0,2 0,2 -1,1 -1,1 -2,1 -1,0 -2,0 -2,-1 -1,0 -1,-1 -1,-2l0 -24c0,-1 0,-2 1,-2 0,-1 1,-1 2,-1 1,0 1,0 2,1 0,0 0,1 0,2z"/>
   <path id="2" class="fil3" d="M146 45c0,0 -1,0 -1,1 0,0 -1,0 -1,0l-2 2c0,0 -1,0 -1,1 0,0 0,0 0,1l0 10c0,1 0,1 0,1 0,1 1,1 1,1l2 2c0,0 1,0 1,0 0,1 1,1 1,1l6 0c0,0 0,0 1,-1 0,0 0,0 0,0l3 -2c0,0 0,0 0,-1 0,0 1,0 1,-1l0 -10c0,-1 -1,-1 -1,-1 0,-1 0,-1 0,-1l-3 -2c0,0 0,0 -1,0 0,-1 0,-1 0,-1l-6 0zm0 -5l6 0c1,0 1,0 2,1 1,0 2,0 3,1l2 2c1,0 2,1 2,2 1,2 1,3 1,4l0 10c0,1 0,2 -1,4 0,1 -1,1 -2,2l-2 2c-1,1 -2,1 -3,1 -1,1 -1,1 -2,1l-6 0c-1,0 -2,0 -3,-1 -1,0 -1,0 -2,-1l-2 -2c-1,-1 -2,-1 -3,-2 0,-2 0,-3 0,-4l0 -10c0,-1 0,-2 0,-4 1,-1 2,-2 3,-2l2 -2c1,-1 1,-1 2,-1 1,-1 2,-1 3,-1z"/>
   <path id="3" class="fil3" d="M189 43c0,-1 0,-2 1,-2 0,-1 1,-1 2,-1 0,0 1,0 2,1 0,0 0,1 0,2l0 28c0,1 0,3 0,4 -1,1 -2,2 -2,2l-3 2c-1,1 -1,1 -2,2 -1,0 -2,0 -3,0l-10 0c-1,0 -2,0 -2,-1 -1,0 -1,-1 -1,-2 0,0 0,-1 1,-2 0,0 1,0 2,0l10 0c1,0 1,0 1,0 0,0 1,-1 1,-1l2 -2c0,0 1,0 1,-1 0,0 0,0 0,-1l0 -5 -2 2c-1,1 -1,1 -2,1 -1,1 -2,1 -3,1l-4 0c-1,0 -2,0 -3,0 -1,-1 -1,-1 -2,-2l-2 -1c-1,-1 -2,-2 -2,-3 -1,-1 -1,-2 -1,-3l0 -12c0,-1 0,-2 1,-3 0,-1 1,-2 2,-3l2 -1c1,-1 1,-1 2,-1 1,-1 2,-1 3,-1l4 0c1,0 2,0 3,1 1,0 1,0 2,1l2 2 0 -1zm0 15l0 -6c0,-1 0,-1 0,-1 0,-1 -1,-1 -1,-1l-4 -4c0,0 -1,0 -1,0 0,-1 -1,-1 -1,-1l-4 0c0,0 -1,0 -1,1 0,0 -1,0 -1,0l-2 2c0,0 0,0 0,0 0,1 0,1 0,1l0 12c0,0 0,0 0,1 0,0 0,0 0,0l2 2 0 0c1,0 1,1 2,1l4 0c0,0 1,0 1,-1 0,0 1,0 1,0l4 -4c0,0 1,0 1,-1 0,0 0,0 0,-1z"/>
   <path id="4" class="fil3" d="M206 43l0 3 4 -4c1,-1 2,-1 3,-1 1,-1 2,-1 2,-1l4 0c2,0 4,1 6,2 1,2 2,4 2,6l0 1c0,1 0,2 -1,2 0,1 -1,1 -2,1 -1,0 -1,0 -2,-1 0,0 0,-1 0,-2l0 -1c0,-1 -1,-1 -1,-2 -1,0 -1,-1 -2,-1l-4 0c0,0 0,0 -1,1 0,0 0,0 0,0l-8 7 0 14c0,1 0,2 -1,2 0,1 -1,1 -2,1 0,0 -1,0 -2,-1 0,0 0,-1 0,-2l0 -24c0,-1 0,-2 0,-2 1,-1 2,-1 2,-1 1,0 2,0 2,1 1,0 1,1 1,2z"/>
   <path id="5" class="fil3" d="M241 57c-1,0 -1,0 -2,0 0,1 0,1 0,2l0 3c0,1 0,1 0,2 1,0 1,1 2,1l7 0 6 -4 0 -2c0,-1 0,-1 -1,-2 0,0 -1,0 -2,0l-10 0zm0 -17l10 0c2,0 4,1 5,2 2,2 3,4 3,6l0 19 0 0c0,1 0,2 0,2 -1,1 -1,1 -2,1 -1,0 -2,0 -2,-1 0,0 -1,-1 -1,-2l-3 2c0,0 -1,1 -1,1 -1,0 -1,0 -1,0l-8 0c-2,0 -4,-1 -5,-2 -2,-2 -3,-4 -3,-6l0 -3c0,-2 1,-4 3,-5 1,-2 3,-3 5,-3l10 0c1,0 1,0 1,0 1,0 1,1 2,1l-1 -4c0,-1 0,-1 0,-2 -1,0 -1,-1 -2,-1l-10 0c-1,0 -1,0 -2,0 0,-1 0,-1 0,-2 0,-1 0,-2 0,-2 1,-1 2,-1 2,-1z"/>
   <path id="6" class="fil3" d="M292 46l0 21 0 0c0,1 0,2 0,2 -1,1 -1,1 -2,1 -1,0 -2,0 -2,-1 -1,0 -1,-1 -1,-2l-1 -21c0,0 0,0 0,0 0,0 0,-1 -1,-1 0,0 0,0 0,0 0,1 0,1 0,1l-4 3 0 18c0,1 0,2 0,2 -1,1 -1,1 -2,1 -1,0 -2,0 -2,-1 -1,0 -1,-1 -1,-2l0 -20c0,-1 0,-1 0,-1 0,0 -1,-1 -1,-1 0,0 0,0 0,1 -1,0 -1,0 -1,0l-4 3 0 18c0,1 0,2 0,2 -1,1 -1,1 -2,1 -1,0 -2,0 -2,-1 -1,0 -1,-1 -1,-2l0 -24c0,-1 0,-2 1,-2 0,-1 1,-1 2,-1 0,0 1,0 1,1 1,0 1,0 1,1l1 -1c1,0 1,0 2,-1 1,0 1,0 2,0 1,0 2,0 3,1 1,0 1,1 2,2l1 -1c1,-1 2,-1 2,-1 1,-1 2,-1 2,-1 2,0 4,1 5,2 1,1 2,2 2,4z"/>
   <path id="7" class="fil3" d="M324 46l1 21 0 0c0,1 0,2 -1,2 0,1 -1,1 -2,1 0,0 -1,0 -2,-1 0,0 0,-1 0,-2l-1 -21c0,0 0,0 0,0 0,0 -1,-1 -1,-1 0,0 0,0 0,0 -1,1 -1,1 -1,1l-3 3 0 18c0,1 0,2 -1,2 0,1 -1,1 -2,1 0,0 -1,0 -2,-1 0,0 0,-1 0,-2l0 -20c0,-1 0,-1 -1,-1 0,0 0,-1 -1,-1 0,0 0,0 0,1 0,0 0,0 0,0l-4 3 0 18c0,1 0,2 -1,2 0,1 -1,1 -2,1 0,0 -1,0 -2,-1 0,0 0,-1 0,-2l0 -24c0,-1 0,-2 0,-2 1,-1 2,-1 2,-1 1,0 1,0 2,1 0,0 1,0 1,1l1 -1c0,0 1,0 2,-1 0,0 1,0 2,0 1,0 1,0 2,1 1,0 2,1 3,2l0 -1c1,-1 2,-1 3,-1 0,-1 1,-1 2,-1 2,0 3,1 4,2 2,1 2,2 2,4z"/>
   <path id="8" class="fil3" d="M336 40l8 0c0,0 1,0 2,1 0,0 1,1 1,2l0 22 4 0c1,0 2,0 2,0 1,1 1,1 1,2 0,1 0,2 -1,2 0,1 -1,1 -2,1l-15 0c-1,0 -1,0 -2,-1 0,0 -1,-1 -1,-2 0,0 1,-1 1,-2 1,0 1,0 2,0l5 0 0 -20 -5 0c-1,0 -1,0 -2,0 0,-1 -1,-1 -1,-2 0,-1 1,-2 1,-2 1,-1 1,-1 2,-1zm6 -13l2 0c1,0 1,0 2,1 0,0 1,1 1,1l0 3c0,0 -1,1 -1,2 -1,0 -2,0 -2,0l-2 0c-1,0 -2,0 -3,0 0,-1 0,-2 0,-2l0 -3c0,0 0,-1 0,-2 1,0 2,0 3,0z"/>
   <path id="9" class="fil3" d="M373 45c0,0 0,0 0,1 -1,0 -1,0 -1,0l-2 2c-1,0 -1,0 -1,1 0,0 0,0 0,1l0 3 15 0 0 -3c0,-1 0,-1 0,-1 0,-1 0,-1 -1,-1l-2 -2c0,0 -1,0 -1,0 0,-1 0,-1 -1,-1l-6 0zm0 -5l6 0c1,0 2,0 3,1 1,0 2,0 2,1l3 2c0,0 1,1 2,2 0,2 0,3 0,4l0 6c0,1 0,2 0,2 -1,1 -2,1 -2,1l-18 0 0 1c0,1 0,1 0,1 0,1 0,1 1,1l2 2c0,0 0,0 1,0 0,1 0,1 0,1l14 0c0,0 1,0 2,0 0,1 0,2 0,2 0,1 0,2 0,2 -1,1 -2,1 -2,1l-14 0c0,0 -1,0 -2,-1 -1,0 -2,0 -3,-1l-2 -2c-1,-1 -1,-1 -2,-2 0,-2 -1,-3 -1,-4l0 -10c0,-1 1,-2 1,-4 1,-1 1,-2 2,-2l2 -2c1,-1 2,-1 3,-1 1,-1 2,-1 2,-1z"/>
   <path id="10" class="fil3" d="M401 43l0 3 5 -4c0,-1 1,-1 2,-1 1,-1 2,-1 3,-1l3 0c2,0 4,1 6,2 1,2 2,4 2,6l0 1c0,1 0,2 -1,2 0,1 -1,1 -2,1 0,0 -1,0 -2,-1 0,0 0,-1 0,-2l0 -1c0,-1 -1,-1 -1,-2 -1,0 -1,-1 -2,-1l-3 0c-1,0 -1,0 -1,1 -1,0 -1,0 -1,0l-8 7 0 14c0,1 0,2 -1,2 0,1 -1,1 -2,1 0,0 -1,0 -1,-1 -1,0 -1,-1 -1,-2l0 -24c0,-1 0,-2 1,-2 0,-1 1,-1 1,-1 1,0 2,0 2,1 1,0 1,1 1,2z"/>
   <path class="fil4" d="M458 35c5,1 8,4 10,6 2,2 3,6 3,10 0,7 -2,11 -5,15 -4,3 -9,4 -15,4l-19 0c-1,0 -2,0 -2,-1l0 -2c0,-1 1,-1 1,-2 2,0 3,-1 3,-3l0 -46c0,-1 0,-1 -1,-2 0,0 0,0 -2,-1 0,0 0,0 0,0 -1,-1 -1,-1 -1,-3 0,-1 1,-1 1,-2 0,0 1,0 1,0l21 0c6,0 10,1 12,4 3,2 4,6 4,10 0,3 -1,6 -3,8 -2,3 -5,4 -8,5zm-10 -23l0 21 2 0c1,0 2,-1 3,-1 1,-1 1,-2 1,-4 1,-2 1,-4 1,-7 0,-4 -1,-6 -1,-7 -1,-1 -2,-2 -4,-2l-2 0zm0 25l0 29c2,0 4,0 5,-1 1,-1 1,-2 1,-4 0,-2 0,-5 0,-9 0,-1 0,-4 0,-7 0,-3 0,-5 0,-6 0,0 -1,-1 -1,-1 -1,-1 -2,-1 -3,-1l-2 0z"/>
   <path id="1" class="fil4" d="M492 57l-9 0 -1 4c0,0 0,0 0,0 0,1 0,1 0,2 0,1 0,2 1,2 1,1 2,1 2,1 0,1 0,1 0,2 0,1 0,2 0,2 0,0 -1,0 -1,0l-10 0c-1,0 -1,0 -1,-1 0,-2 0,-3 1,-4 1,-1 2,-1 2,-2l7 -46c0,-1 0,-1 0,-2 0,-1 -1,-1 -2,-2 0,0 0,-1 0,-2 0,-1 0,-2 0,-3 0,0 0,0 1,0l15 0c1,0 1,0 2,1 0,1 0,3 1,6 0,1 0,2 0,3l7 43c0,2 1,3 2,4 0,1 0,1 1,1 0,0 0,1 0,2 0,1 0,2 -1,2 0,0 0,0 -1,0l-17 0c0,0 -1,0 -1,-1 0,-1 0,-2 1,-2 0,-1 0,-1 1,-1 1,-1 1,-2 1,-3 0,-1 0,-3 -1,-6zm-4 -34l-5 30 9 0 -4 -30z"/>
   <path id="2" class="fil4" d="M530 43l0 19c0,1 0,2 0,2 0,0 0,1 1,1 0,0 1,1 1,2 0,2 0,3 -1,3 0,0 -1,0 -1,0l-17 0c0,0 -1,0 -1,-2 0,-1 0,-2 0,-2 0,0 1,-1 1,-1 1,0 2,-2 2,-3l0 -46c0,-1 -1,-2 -2,-3 0,0 -1,0 -1,0 0,0 0,-1 0,-2 0,-2 0,-3 1,-3l22 0c4,0 8,2 11,5 4,3 5,7 5,13 0,7 -4,12 -11,15 7,1 10,6 10,13l0 9c0,1 1,2 1,2 1,1 1,1 1,2 0,2 0,3 0,3 0,0 -1,0 -2,0l-10 0c-1,0 -2,0 -3,-2 -1,-1 -1,-3 -1,-5l0 -15c0,-4 -2,-5 -5,-5l-1 0zm0 -31l0 26 2 0c3,0 4,-2 4,-7l0 -13c0,-2 0,-3 -1,-4 -1,-1 -2,-2 -4,-2l-1 0z"/>
  </g>
  <path class="fil3" d="M76 7c1,0 2,0 2,1l0 0 0 0c1,0 1,1 1,1 0,1 0,2 -1,2l0 0 0 0c0,1 -1,1 -2,1 -1,0 -1,0 -2,-1l0 0 0 0c0,0 -1,-1 -1,-2 0,0 1,-1 1,-1l0 0 0 0c1,-1 1,-1 2,-1zm1 1c0,0 0,0 -1,0 0,0 -1,0 -1,0l0 0c-1,0 -1,1 -1,1 0,1 0,1 1,2l0 0c0,0 1,0 1,0 1,0 1,0 1,0l0 0c1,-1 1,-1 1,-2 0,0 0,-1 -1,-1l0 0z"/>
  <ellipse class="fil1" transform="matrix(0.189674 0.0767476 -0.0767476 0.189674 26.9146 58.3394)" rx="48" ry="14"/>
 </g>
</svg>
