<?xml version="1.0" encoding="UTF-8"?>
<!DOCTYPE svg PUBLIC "-//W3C//DTD SVG 1.0//EN" "http://www.w3.org/TR/2001/REC-SVG-20010904/DTD/svg10.dtd">
<!-- Creator: CorelDRAW X7 -->
<svg xmlns="http://www.w3.org/2000/svg" xml:space="preserve" width="2.79167in" height="2.21875in" version="1.0" style="shape-rendering:geometricPrecision; text-rendering:geometricPrecision; image-rendering:optimizeQuality; fill-rule:evenodd; clip-rule:evenodd"
viewBox="0 0 86126 68451"
 xmlns:xlink="http://www.w3.org/1999/xlink">
 <defs>
  <style type="text/css">
   <![CDATA[
    .str0 {stroke:#2B2A29;stroke-width:214.258}
    .fil5 {fill:none}
    .fil2 {fill:#FEFEFE}
    .fil4 {fill:#FEFEFE}
    .fil1 {fill:#1C1B17}
    .fil0 {fill:#1C1B17}
    .fil3 {fill:#2B2A29;fill-rule:nonzero}
   ]]>
  </style>
 </defs>
 <g id="Layer_x0020_1">
  <metadata id="CorelCorpID_0Corel-Layer"/>
  <polygon class="fil0 str0" points="41085,26306 15076,16379 16863,52316 43667,50926 "/>
  <g id="_300802784">
   <path class="fil1" d="M32029 39982c-803,1937 3436,2897 3664,3227 -1397,923 -10322,-2871 -9873,-4027 1640,95 3618,2198 4920,284 1564,-3732 2976,-8522 4502,-12282 1647,-4055 1240,-2751 -273,-5832 -369,-750 -2996,-5157 -2872,-5398 1203,-1160 6124,5547 8403,4940 5115,-1364 11478,-8121 16744,-6026 171,68 852,317 953,434 258,298 142,760 -118,928l-5615 2186c-2447,1051 -4938,1928 -7488,3001l-7698 2797c-318,219 -2351,6886 -2679,7803 -357,995 -2530,7406 -2570,7965z"/>
   <path class="fil1" d="M27313 7431c777,230 8552,3593 9023,3832 7034,3570 12208,5384 316,807l-8092 -3460c508,986 2738,5396 2942,6140 -18,-18 -40,-43 -51,-56l-3159 -5411c-233,-440 -849,-1390 -979,-1852z"/>
  </g>
  <path class="fil2" d="M37041 24680c-636,1569 -2161,6553 -2442,7337 -357,995 -2530,7406 -2570,7965 -803,1937 3436,2897 3664,3227 -1397,923 -10322,-2871 -9873,-4027 1640,95 3618,2198 4920,284 1564,-3732 2976,-8522 4502,-12282 615,-1512 943,-2279 1035,-2806l764 302z"/>
  <path class="fil1" d="M36277 24378c154,-886 -360,-1094 -1308,-3026 -369,-750 -2996,-5157 -2872,-5398 1203,-1160 6124,5547 8403,4940 5115,-1364 11478,-8121 16744,-6026 171,68 852,317 953,434 258,298 142,760 -118,928l-5615 2186c-2447,1051 -4938,1928 -7488,3001l-7698 2797c-46,32 -129,200 -237,466l-764 -302z"/>
  <polygon class="fil0" points="20266,56072 46097,54198 46054,52377 20223,54251 "/>
  <path class="fil3" d="M44416 26811l-246 0c-14,0 -24,-4 -33,-13 -10,-9 -13,-20 -13,-33 0,-15 3,-27 13,-36 9,-9 21,-13 33,-13l1153 0c180,0 356,44 523,132 119,65 231,165 337,299 104,136 182,272 235,405 70,184 104,396 104,636l0 407c0,287 -53,537 -160,750 -105,213 -249,380 -428,503 -181,123 -371,185 -570,185l-140 0 0 2406 231 0c13,0 23,4 33,13 9,8 13,20 13,34 0,15 -4,27 -13,35 -10,9 -20,13 -33,13l-1285 0c-14,0 -24,-4 -33,-13 -10,-8 -13,-20 -13,-35 0,-14 3,-26 13,-34 9,-9 19,-13 33,-13l246 0 0 -5628zm808 8l0 3111 145 0c99,0 181,-32 244,-95 62,-62 94,-151 94,-264l0 -2366c0,-131 -31,-233 -90,-306 -45,-54 -110,-80 -193,-80l-200 0z"/>
  <path id="1" class="fil3" d="M46927 28473l-164 0c-14,0 -27,-4 -37,-13 -9,-8 -13,-20 -13,-34 0,-15 4,-27 13,-35 10,-9 22,-13 37,-13l845 0 0 507c87,-231 169,-381 244,-450 76,-70 155,-104 241,-104 115,0 219,58 312,174 117,150 176,339 176,566 0,194 -39,340 -117,440 -78,99 -165,150 -260,150 -76,0 -140,-35 -191,-102 -70,-90 -104,-219 -104,-388 0,-165 48,-324 146,-477 49,-77 74,-131 74,-159 0,-24 -9,-43 -28,-60 -17,-18 -39,-25 -65,-25 -48,0 -96,23 -139,69 -74,78 -142,218 -201,421 -59,203 -88,434 -88,693l0 2806 195 0c18,0 33,5 42,14 11,10 16,22 16,33l-12 33c-14,10 -30,15 -46,15l-1036 0c-13,0 -23,-4 -33,-13 -9,-8 -13,-20 -13,-35 0,-14 4,-26 13,-34 10,-9 20,-13 33,-13l160 0 0 -3966z"/>
  <path id="2" class="fil3" d="M48827 30741l0 -760c0,-607 101,-1053 305,-1336 150,-210 340,-314 572,-314 290,0 515,153 670,460 156,308 234,715 234,1222l0 840c0,658 -101,1132 -301,1418 -145,208 -336,310 -577,310 -138,0 -265,-35 -379,-108 -115,-72 -219,-203 -312,-392 -92,-188 -152,-439 -175,-752 -25,-312 -37,-507 -37,-588zm1092 -1908c0,-145 -21,-246 -65,-304 -42,-58 -92,-87 -149,-87 -48,0 -92,23 -132,71 -38,49 -58,121 -58,220l0 3260c0,204 24,343 70,416 36,51 86,77 148,77 59,0 106,-22 137,-68 33,-45 49,-143 49,-293l0 -3292z"/>
  <path id="3" class="fil3" d="M51588 31679c-158,-148 -273,-322 -346,-524 -101,-283 -151,-651 -151,-1104 0,-645 102,-1113 310,-1402 149,-213 345,-318 588,-318 154,0 296,54 422,162 58,-121 124,-211 195,-270 72,-60 151,-90 235,-90 90,0 162,30 217,92 55,61 83,148 83,260 0,96 -20,169 -58,216 -39,49 -83,73 -132,73 -54,0 -98,-18 -132,-57 -33,-37 -50,-91 -50,-163l0 -43c2,-23 4,-43 4,-58 0,-43 -7,-73 -21,-89 -15,-15 -33,-23 -60,-23 -35,0 -71,20 -107,62 -35,41 -70,105 -103,189 245,311 366,818 366,1518 0,610 -104,1062 -313,1355 -155,217 -342,325 -561,325 -34,0 -76,-1 -127,-4 -32,-3 -113,-4 -244,-4 -158,0 -268,24 -334,69 -66,46 -99,91 -99,134 0,41 18,74 54,99 51,36 133,54 244,54l616 0c302,0 521,69 660,206 138,137 207,348 207,633 0,310 -91,554 -275,731 -182,178 -436,267 -764,267 -329,0 -579,-69 -749,-208 -170,-138 -255,-295 -255,-473 0,-112 27,-215 81,-313 53,-96 132,-186 235,-269 -82,-54 -145,-119 -187,-195 -44,-75 -65,-162 -65,-261 0,-171 45,-301 136,-394 91,-91 252,-153 480,-183zm571 -2959c0,-124 -16,-207 -49,-248 -31,-41 -78,-62 -137,-62 -57,0 -103,22 -140,67 -35,46 -54,127 -54,243l0 2579c0,153 24,261 70,326 33,46 79,70 136,70 52,0 94,-21 125,-62 33,-41 49,-114 49,-218l0 -2695zm-856 4041c-67,67 -119,136 -153,206 -34,71 -52,141 -52,211 0,136 74,262 221,381 146,119 356,178 629,178 277,0 504,-69 680,-207 130,-110 196,-238 196,-383 0,-109 -36,-190 -108,-242 -98,-68 -296,-102 -592,-102l-159 0c-258,0 -479,-14 -662,-42z"/>
  <path id="4" class="fil3" d="M53456 28473l-164 0c-14,0 -27,-4 -37,-13 -9,-8 -13,-20 -13,-34 0,-15 4,-27 13,-35 10,-9 22,-13 37,-13l845 0 0 507c87,-231 169,-381 244,-450 76,-70 155,-104 241,-104 115,0 219,58 312,174 117,150 176,339 176,566 0,194 -39,340 -117,440 -78,99 -165,150 -260,150 -76,0 -140,-35 -191,-102 -70,-90 -104,-219 -104,-388 0,-165 48,-324 146,-477 49,-77 74,-131 74,-159 0,-24 -9,-43 -28,-60 -17,-18 -39,-25 -65,-25 -48,0 -96,23 -139,69 -74,78 -141,218 -201,421 -59,203 -88,434 -88,693l0 2806 195 0c18,0 33,5 42,14 11,10 16,22 16,33l-12 33c-14,10 -30,15 -46,15l-1036 0c-13,0 -23,-4 -33,-13 -9,-8 -13,-20 -13,-35 0,-14 4,-26 13,-34 10,-9 20,-13 33,-13l160 0 0 -3966z"/>
  <path id="5" class="fil3" d="M55526 28789c36,-14 71,-23 104,-29 34,-7 65,-10 94,-10 103,0 190,37 261,112 71,76 107,173 107,293 0,124 -36,223 -108,298 -73,76 -170,113 -292,113 -121,0 -218,-39 -287,-115 -70,-75 -105,-189 -105,-338 0,-223 85,-408 252,-558 169,-149 408,-224 718,-224 280,0 480,53 603,157 123,104 185,237 185,400l0 3340c0,39 10,71 30,95 21,25 43,37 66,37 65,0 130,-66 198,-199 17,-41 35,-61 54,-61l46 42c0,91 -58,187 -174,288 -116,101 -255,151 -417,151 -139,0 -245,-33 -321,-97 -76,-65 -133,-178 -171,-342 -120,177 -224,294 -314,352 -90,58 -195,87 -318,87 -148,0 -263,-38 -342,-114 -79,-76 -118,-176 -118,-300l0 -1459c0,-158 34,-274 102,-348 70,-75 274,-169 611,-280 152,-51 277,-103 379,-154l0 -1116c0,-116 -30,-207 -92,-272 -61,-65 -142,-96 -241,-96 -228,0 -398,116 -510,347zm843 1255c-170,65 -281,130 -330,194 -49,65 -74,168 -74,309l0 1639c0,54 11,93 31,120 19,25 44,38 74,38 42,0 89,-44 143,-132 105,-162 156,-359 156,-588l0 -1580z"/>
  <path id="6" class="fil3" d="M58347 32439l97 8c15,6 21,20 21,39 0,15 -13,31 -38,48l-913 0c-25,-17 -38,-33 -38,-48 0,-14 12,-30 37,-47l145 0 0 -3966 -145 0c-25,-14 -37,-29 -37,-43 0,-17 13,-35 38,-52l833 0 0 310c93,-140 179,-235 255,-283 78,-49 181,-74 308,-74 142,0 251,29 324,87 74,58 138,167 189,328 83,-163 162,-273 240,-329 78,-57 184,-86 318,-86 183,0 318,43 405,129 86,87 129,211 129,371l0 3608 128 0c16,0 28,4 39,13 10,8 15,20 15,34l-11 33c-14,10 -27,15 -43,15l-897 0c-25,-17 -38,-33 -38,-48 0,-14 13,-30 38,-47l81 0 0 -3743c0,-45 -11,-79 -33,-105 -23,-25 -46,-39 -71,-39 -58,0 -114,43 -168,128 -88,138 -132,328 -132,573l0 3186 84 0 23 11c8,10 12,22 12,36 0,15 -12,31 -35,48l-869 0c-20,-15 -30,-30 -30,-48 0,-17 10,-33 30,-47l104 0 0 -3693c0,-70 -12,-120 -35,-149 -24,-30 -50,-45 -82,-45 -53,0 -100,32 -145,97 -89,134 -133,282 -133,443l0 3347z"/>
  <path id="7" class="fil3" d="M61759 32439l98 8c15,6 21,20 21,39 0,15 -13,31 -38,48l-913 0c-25,-17 -38,-33 -38,-48 0,-14 12,-30 37,-47l145 0 0 -3966 -145 0c-25,-14 -37,-29 -37,-43 0,-17 13,-35 38,-52l832 0 0 310c94,-140 180,-235 256,-283 78,-49 181,-74 308,-74 142,0 251,29 324,87 74,58 138,167 189,328 83,-163 162,-273 240,-329 78,-57 184,-86 318,-86 183,0 318,43 405,129 86,87 129,211 129,371l0 3608 128 0c16,0 28,4 39,13 10,8 15,20 15,34l-11 33c-14,10 -27,15 -43,15l-897 0c-25,-17 -38,-33 -38,-48 0,-14 13,-30 38,-47l81 0 0 -3743c0,-45 -11,-79 -33,-105 -23,-25 -46,-39 -71,-39 -59,0 -114,43 -168,128 -88,138 -132,328 -132,573l0 3186 84 0 23 11c8,10 12,22 12,36 0,15 -12,31 -35,48l-869 0c-20,-15 -30,-30 -30,-48 0,-17 10,-33 30,-47l104 0 0 -3693c0,-70 -12,-120 -35,-149 -24,-30 -50,-45 -82,-45 -53,0 -100,32 -145,97 -89,134 -134,282 -134,443l0 3347z"/>
  <path id="8" class="fil3" d="M64428 27074c0,-110 40,-206 120,-285 80,-81 175,-120 283,-120 115,0 214,39 293,117 80,79 120,175 120,288 0,113 -40,211 -120,290 -79,80 -177,120 -289,120 -111,0 -207,-40 -287,-120 -80,-79 -120,-177 -120,-290zm56 1399l-148 0c-16,0 -28,-4 -37,-13 -9,-8 -13,-20 -13,-34 0,-15 4,-27 13,-35 9,-9 21,-13 37,-13l836 0 0 4061 164 0c16,0 28,4 37,13 9,8 13,21 13,38 0,12 -4,23 -13,31 -9,9 -21,13 -37,13l-996 0c-25,-17 -38,-33 -38,-48 0,-17 12,-33 37,-47l145 0 0 -3966z"/>
  <path id="9" class="fil3" d="M66290 30468l0 1443c0,226 26,374 78,446 38,54 101,82 190,82 145,0 274,-82 388,-244 188,-276 288,-649 302,-1123 2,-155 10,-244 22,-264 12,-21 28,-31 49,-31 18,0 33,8 43,23 14,20 20,70 20,147 0,462 -80,848 -241,1163 -162,314 -380,471 -653,471 -256,0 -467,-121 -635,-362 -167,-242 -252,-766 -252,-1572l0 -568c0,-618 114,-1087 341,-1408 162,-227 357,-340 587,-340 273,0 482,146 632,438 147,291 221,646 221,1064l0 635 -1092 0zm404 -95l0 -1656c0,-107 -22,-187 -62,-241 -29,-38 -72,-58 -128,-58 -57,0 -107,25 -150,74 -43,49 -64,124 -64,225l0 1656 404 0z"/>
  <path id="10" class="fil3" d="M67824 28473l-163 0c-15,0 -28,-4 -37,-13 -10,-8 -14,-20 -14,-34 0,-15 4,-27 14,-35 9,-9 21,-13 37,-13l844 0 0 507c87,-231 169,-381 244,-450 77,-70 156,-104 241,-104 115,0 219,58 312,174 117,150 176,339 176,566 0,194 -39,340 -117,440 -78,99 -165,150 -260,150 -76,0 -140,-35 -191,-102 -70,-90 -104,-219 -104,-388 0,-165 49,-324 146,-477 49,-77 74,-131 74,-159 0,-24 -9,-43 -28,-60 -17,-18 -39,-25 -64,-25 -49,0 -97,23 -140,69 -74,78 -141,218 -201,421 -59,203 -88,434 -88,693l0 2806 195 0c19,0 33,5 42,14 11,10 16,22 16,33l-12 33c-14,10 -30,15 -46,15l-1035 0c-14,0 -24,-4 -33,-13 -10,-8 -14,-20 -14,-35 0,-14 4,-26 14,-34 9,-9 19,-13 33,-13l159 0 0 -3966z"/>
  <path class="fil3" d="M45113 53993l0 -19624 -874 0c-97,-60 -147,-119 -147,-170 0,-46 50,-101 147,-161l3961 0c1214,0 2208,423 2985,1265 773,846 1159,2033 1159,3560 0,934 -133,1739 -395,2420 -263,676 -667,1246 -1224,1702 -345,290 -869,561 -1573,823 731,272 1269,543 1615,824 556,460 975,1016 1260,1665 285,653 428,1458 428,2410 0,1233 -212,2328 -631,3280 -285,667 -759,1224 -1412,1670 -653,446 -1435,667 -2346,667l-3827 0c-97,-60 -147,-115 -147,-166 0,-50 50,-105 147,-165l874 0zm2760 -19596l0 9246 718 0c326,0 570,-83 726,-244 161,-161 240,-428 240,-805l0 -7015c0,-456 -83,-768 -244,-934 -166,-166 -479,-248 -952,-248l-488 0zm0 9604l0 9964 432 0c382,0 686,-106 911,-322 226,-216 341,-511 341,-879l0 -7833c0,-331 -65,-571 -198,-713 -129,-143 -336,-217 -617,-217l-869 0z"/>
  <path id="1" class="fil3" d="M56636 34342l1431 0 2382 19651 608 0c96,60 147,115 147,165 0,51 -51,106 -147,166l-4035 0c-46,0 -78,-14 -105,-46 -28,-28 -42,-69 -42,-120 0,-50 14,-92 42,-119 27,-33 64,-46 105,-46l654 0 -373 -3837 -2461 0 -285 2158c-5,115 -9,234 -9,358 0,391 73,686 230,888 151,198 363,322 630,364l225 69c37,36 55,87 55,142 0,60 -13,106 -46,138 -32,33 -73,51 -115,51l-2318 0c-41,0 -83,-18 -115,-51 -28,-32 -46,-78 -46,-138 0,-55 14,-106 41,-142l161 -56c263,-32 465,-147 608,-345 216,-312 368,-828 460,-1545l2318 -17705zm-382 5023l-1366 10432 2378 0 -1012 -10432z"/>
  <path id="2" class="fil3" d="M62593 34369l-791 0c-97,-55 -147,-110 -147,-170 0,-55 50,-110 147,-161l4241 0c1049,0 1960,446 2732,1343 773,897 1160,2121 1160,3666 0,893 -148,1684 -447,2379 -294,694 -736,1265 -1320,1715 -349,272 -897,529 -1633,782 819,244 1389,479 1711,704 543,373 948,828 1210,1357 262,529 396,1219 396,2061l0 4927c0,225 37,381 110,473 69,88 166,134 281,134 179,0 345,-111 487,-336 235,-359 382,-1008 447,-1937 9,-161 36,-271 78,-322 41,-55 83,-83 129,-83 55,0 101,33 138,93 46,73 69,206 69,404 0,994 -240,1762 -723,2305 -478,543 -1081,814 -1807,814 -649,0 -1137,-166 -1472,-497 -332,-331 -497,-805 -497,-1417l0 -7120c0,-607 -152,-1017 -460,-1224 -184,-115 -607,-175 -1279,-175l0 9909 658 0c69,0 124,18 165,50 42,32 60,74 60,115 0,42 -18,83 -60,115 -41,33 -96,51 -170,51l-4246 0c-55,0 -96,-14 -133,-46 -37,-28 -55,-69 -55,-120 0,-50 18,-92 55,-119 37,-33 83,-46 143,-46l823 0 0 -19624zm2760 28l0 9329 667 0c317,0 575,-106 773,-322 198,-217 299,-534 299,-944l0 -6996c0,-405 -74,-685 -216,-837 -148,-152 -433,-230 -856,-230l-667 0z"/>
  <path class="fil3" d="M58874 11297c435,0 830,177 1116,463l1 1 0 0c286,287 463,681 463,1116 0,435 -177,830 -463,1117l0 0 -1 1c-286,286 -681,462 -1116,462 -435,0 -830,-176 -1116,-462l-1 -1 0 0c-286,-287 -463,-682 -463,-1117 0,-435 177,-829 463,-1116l0 0 1 -1c286,-286 681,-463 1116,-463zm760 820c-194,-194 -463,-314 -760,-314 -298,0 -566,120 -760,314l-1 1c-194,193 -314,462 -314,759 0,298 120,566 314,760l1 1c194,194 462,314 760,314 297,0 566,-120 760,-314l1 -1c193,-194 313,-462 313,-760 0,-297 -120,-566 -313,-759l-1 -1z"/>
  <ellipse class="fil4" transform="matrix(0.92699 0.375087 -0.375087 0.92699 30556.8 40988)" rx="5677" ry="1660"/>
  <rect class="fil5" width="86126" height="68451"/>
 </g>
</svg>
