<?xml version="1.0" encoding="UTF-8"?>
<!DOCTYPE svg PUBLIC "-//W3C//DTD SVG 1.0//EN" "http://www.w3.org/TR/2001/REC-SVG-20010904/DTD/svg10.dtd">
<!-- Creator: CorelDRAW X7 -->
<svg xmlns="http://www.w3.org/2000/svg" xml:space="preserve" width="2.01129in" height="2.01129in" version="1.0" style="shape-rendering:geometricPrecision; text-rendering:geometricPrecision; image-rendering:optimizeQuality; fill-rule:evenodd; clip-rule:evenodd"
viewBox="0 0 532 532"
 xmlns:xlink="http://www.w3.org/1999/xlink">
 <defs>
  <style type="text/css">
   <![CDATA[
    .fil0 {fill:none}
    .fil2 {fill:#1C1B17}
    .fil1 {fill:black;fill-rule:nonzero}
   ]]>
  </style>
 </defs>
 <g id="Layer_x0020_1">
  <metadata id="CorelCorpID_0Corel-Layer"/>
  <rect class="fil0" width="532" height="532"/>
  <path class="fil1" d="M131 198c0,0 -1,-1 -1,-1 -2,-1 -3,-1 -5,-1 -2,0 -3,1 -4,2 0,1 -1,1 -2,2l-1 0c-1,0 -2,0 -3,-1 -1,0 -1,0 -3,0 -2,1 -3,2 -3,2l0 0c0,1 -1,1 -1,1l0 0c-1,2 -3,2 -7,-2 0,-1 0,-1 -1,-1 0,0 -1,-1 -1,0 -1,0 -2,0 -2,1l0 0c-1,1 -2,3 -7,3 -8,0 -9,5 -9,10l0 2 0 1 0 0c-2,1 -2,2 -3,2 -1,1 -2,2 -4,4 -1,3 -1,4 0,5 0,1 1,2 1,3l0 2c-1,0 -1,1 -2,2 -1,1 -3,2 -2,4 0,1 0,1 1,2l0 0c0,1 1,1 1,3 0,1 -1,1 -1,2 0,1 -1,2 0,3 0,2 1,3 2,4 1,0 2,1 3,2 0,1 1,2 1,2 0,1 0,1 1,2 0,0 0,0 1,0 1,0 2,0 3,1l1 0c1,2 1,4 1,6 0,1 0,2 0,3 1,2 1,3 2,3l0 0c1,1 2,1 3,2 0,1 1,3 1,4 1,4 2,10 5,14 1,2 3,3 5,3 1,1 3,1 4,0 2,0 3,-1 5,-2 2,-1 3,-4 4,-7 1,-2 1,-3 1,-4 0,0 0,-1 1,-1l0 0c0,-1 0,-1 1,-1 0,0 1,-1 2,-2 6,-5 5,-9 4,-12 0,-2 -1,-3 -1,-4l1 -1 1 0c2,-1 3,0 4,0 2,0 4,0 7,-1 2,-1 3,-2 3,-4 1,-1 2,-2 3,-3l1 -1 0 0c2,1 3,1 4,2 1,0 2,0 3,1 2,0 2,-1 3,-1l0 0c0,-1 1,-2 2,-2l1 0c1,0 2,0 3,1 2,0 3,1 5,0 1,0 1,-2 1,-3 1,-1 1,-2 1,-3l1 -1 1 0c2,0 3,1 5,2 1,1 3,2 6,1 3,-1 4,-5 5,-8 1,-3 2,-5 4,-6l0 0c0,0 0,0 0,0 1,-1 2,-1 2,-3 0,-1 0,-2 0,-3 -1,0 -1,-1 -2,-3 0,-1 1,-2 1,-2 0,-1 0,-2 -1,-3 0,0 -1,0 -1,0 -1,0 -2,0 -3,-1 -1,-1 -1,-3 -2,-4 0,-2 0,-4 -1,-4 -1,-1 -2,-1 -4,-1 -1,0 -2,0 -3,0l-1 0 0 -1c0,0 -1,-1 -1,-1l0 0c0,-1 -1,-2 -3,-2 -1,0 -2,0 -3,1l0 0c-1,1 -2,1 -3,1l-1 0 -1 -1c-1,-1 -1,-3 -1,-5 0,-3 1,-7 -8,-10 -1,-1 -3,-1 -5,-1 -2,0 -3,1 -5,1 -2,1 -4,2 -5,3 -1,1 -2,2 -3,3l-1 0 -1 0zm0 -4l1 0c0,0 1,-1 2,-1 1,-2 3,-3 6,-4 2,-1 4,-1 6,-1 2,-1 4,0 6,0 11,4 11,10 11,14 0,1 0,2 0,2l0 0 0 0c1,-1 3,-2 5,-2 4,1 5,2 6,4 1,0 1,0 2,0 3,0 5,0 7,2 1,2 2,4 2,6 0,1 0,2 1,2l0 0c0,0 0,0 0,0 1,0 2,0 4,1l0 1c2,2 2,3 1,5 0,1 0,1 0,2 0,1 0,1 1,2 0,1 1,2 1,4 0,4 -2,5 -4,6 0,0 0,0 -1,0l0 0c0,0 0,2 -1,4 -1,4 -3,8 -8,11 -4,1 -7,0 -9,-2 -1,0 -1,-1 -2,-1 0,0 0,1 0,1 -1,2 -1,4 -4,5 -2,2 -5,1 -7,0 -1,0 -1,0 -2,-1 0,1 0,1 0,1l0 0c-1,1 -3,3 -7,2 -1,0 -3,-1 -4,-1 0,0 -1,-1 -1,-1 -1,1 -1,2 -1,2 -1,2 -2,4 -6,5 -3,2 -6,2 -8,1 -1,0 -1,0 -2,0l0 1c2,4 3,10 -4,16 -2,1 -3,2 -3,2 0,1 0,2 -1,5 -1,3 -3,6 -6,8 -2,2 -4,3 -6,3 -2,0 -4,0 -7,0 -2,-1 -4,-3 -6,-5 -4,-5 -5,-11 -6,-15 0,-1 0,-3 0,-3 0,0 -1,0 -1,0l0 0c-2,-1 -3,-2 -4,-5 -1,-2 -1,-4 -1,-5 0,-1 0,-2 0,-3 0,0 0,0 0,0 -2,0 -3,0 -5,-1 -1,-1 -1,-2 -2,-3 0,-1 0,-1 0,-2 -1,0 -1,-1 -2,-1 -2,-2 -4,-3 -4,-7 0,-2 0,-3 1,-4 0,-1 0,-1 0,-1 0,-1 0,-1 0,-1l0 0c-1,-1 -2,-2 -2,-3 0,-4 2,-6 3,-8 1,0 1,0 1,-1 0,0 0,-1 0,-1 -2,-3 -3,-5 0,-9 2,-3 3,-4 5,-5 0,0 1,0 2,-1l0 -1c0,-7 0,-13 12,-14 3,0 3,0 4,-1l0 0c1,-2 2,-3 4,-3 2,0 3,0 4,0 1,1 1,2 2,2 2,2 1,3 2,3l0 0c0,0 0,-1 0,-1l0 0c1,-1 2,-2 5,-3 3,-1 4,-1 6,0 0,0 0,0 1,0 0,0 0,0 0,0 2,-2 3,-3 6,-4 3,0 5,1 7,2zm-12 88l0 0c0,0 0,0 0,0 0,0 0,0 0,0z"/>
  <path class="fil2" d="M86 344c-1,4 -3,14 -2,19 2,3 11,6 15,7 11,3 26,4 38,4 13,0 27,-2 37,-6 5,-2 12,-5 13,-9 2,-4 0,-14 -3,-17 -9,10 -29,14 -48,14 -13,1 -28,0 -41,-6 -5,-2 -5,-4 -9,-6z"/>
  <path class="fil2" d="M178 253c-1,1 -2,0 -4,0l0 4c0,9 1,20 1,29 0,10 0,20 1,30 0,11 1,20 -6,24 -5,3 -18,6 -24,6 -12,2 -45,1 -50,-9 -5,-8 -2,-37 -3,-42 -1,-2 -1,-2 -2,-3 -1,-2 -2,-5 -3,-7 0,0 0,0 0,0 0,0 0,0 -1,0l0 56c6,5 11,8 21,11 18,3 51,3 67,-6 3,-2 7,-6 9,-7l-4 -87 -2 1z"/>
  <path class="fil2" d="M202 367l224 -10 -6 -115c-1,-24 1,-26 -11,-32 -5,5 -9,-6 -5,30 1,12 1,22 1,34 1,20 8,50 2,65l-177 12 -11 -270 91 29c12,2 6,3 13,-2 -2,-16 9,-9 -29,-20 -12,-4 -22,-8 -34,-12 -25,-8 -48,-21 -74,-17 -4,15 10,292 16,308zm-4 -108l0 4c2,-2 1,-2 3,-3 5,-2 10,-5 13,6 2,7 4,36 1,43 -1,5 -6,10 -12,11 0,0 -2,1 -2,1l0 3 0 8c8,1 19,-4 23,-12 5,-8 4,-20 4,-31 -1,-24 1,-45 -26,-45 -1,4 -3,4 -4,6 -1,2 0,6 0,9z"/>
  <polygon class="fil2" points="375,376 264,384 265,400 376,392 "/>
 </g>
</svg>
