<?xml version="1.0" encoding="UTF-8"?>
<!DOCTYPE svg PUBLIC "-//W3C//DTD SVG 1.0//EN" "http://www.w3.org/TR/2001/REC-SVG-20010904/DTD/svg10.dtd">
<!-- Creator: CorelDRAW X7 -->
<svg xmlns="http://www.w3.org/2000/svg" xml:space="preserve" width="2.79167in" height="2.21875in" version="1.0" style="shape-rendering:geometricPrecision; text-rendering:geometricPrecision; image-rendering:optimizeQuality; fill-rule:evenodd; clip-rule:evenodd"
viewBox="0 0 1117 888"
 xmlns:xlink="http://www.w3.org/1999/xlink">
 <defs>
  <style type="text/css">
   <![CDATA[
    .fil3 {fill:none}
    .fil0 {fill:#1C1B17}
    .fil1 {fill:#1C1B17}
    .fil2 {fill:#2B2A29;fill-rule:nonzero}
   ]]>
  </style>
 </defs>
 <g id="Layer_x0020_1">
  <metadata id="CorelCorpID_0Corel-Layer"/>
  <g id="_306830416">
   <path class="fil0" d="M375 518c-10,26 45,38 48,42 -19,12 -134,-37 -129,-52 22,1 47,29 64,4 21,-49 39,-111 59,-160 21,-52 16,-35 -4,-75 -5,-10 -39,-67 -37,-70 15,-15 79,72 109,64 66,-18 149,-105 217,-78 2,1 11,4 12,5 4,4 2,10 -1,12l-73 29c-32,13 -64,25 -97,39l-100 36c-4,3 -30,89 -35,101 -4,13 -32,96 -33,103z"/>
   <path class="fil0" d="M314 96c10,3 111,47 117,50 91,46 158,70 4,11l-105 -45c7,12 36,70 38,79 0,0 0,0 0,0l-41 -71c-3,-5 -11,-18 -13,-24z"/>
  </g>
  <path class="fil1" d="M180 678l339 -16 -8 -174c-2,-36 1,-38 -17,-47 -8,7 -14,-9 -8,45 2,18 2,33 2,51 1,30 12,76 2,99l-266 17 -17 -408 136 44c19,3 9,4 20,-3 -2,-23 14,-14 -42,-31 -19,-5 -35,-11 -53,-17 -37,-12 -71,-33 -112,-26 -6,23 16,441 24,466z"/>
  <polygon class="fil1" points="222,727 557,703 557,679 222,703 "/>
  <path class="fil2" d="M536 348l-4 0c0,0 0,0 0,-1 0,0 0,0 0,0 0,0 0,0 0,0 0,-1 0,-1 0,-1l15 0c3,0 5,1 7,2 2,1 3,2 5,4 1,2 2,4 3,5 0,3 1,5 1,8l0 6c0,3 -1,7 -2,9 -2,3 -3,5 -6,7 -2,2 -5,2 -7,2l-2 0 0 32 3 0c0,0 0,0 1,0 0,0 0,0 0,0 0,0 0,1 0,1 -1,0 -1,0 -1,0l-17 0c0,0 0,0 0,0 0,0 0,-1 0,-1 0,0 0,0 0,0 0,0 0,0 0,0l4 0 0 -73zm10 0l0 40 2 0c1,0 2,0 3,-1 1,-1 1,-2 1,-4l0 -30c0,-2 0,-3 -1,-4 0,-1 -1,-1 -2,-1l-3 0z"/>
  <path id="1" class="fil2" d="M568 369l-2 0c0,0 0,0 0,0 -1,0 -1,0 -1,0 0,-1 0,-1 1,-1 0,0 0,0 0,0l11 0 0 7c1,-3 2,-5 3,-6 1,-1 2,-2 3,-2 2,0 3,1 4,3 2,2 3,4 3,7 0,2 -1,4 -2,6 -1,1 -2,2 -3,2 -1,0 -2,-1 -3,-2 -1,-1 -1,-3 -1,-5 0,-2 1,-4 2,-6 0,-1 1,-2 1,-2 0,0 0,-1 -1,-1 0,0 0,0 0,0 -1,0 -2,0 -2,1 -1,1 -2,3 -3,5 -1,3 -1,6 -1,9l0 37 3 0c0,0 0,0 0,0 0,0 0,0 0,0l0 1c0,0 0,0 0,0l-14 0c0,0 0,0 0,0 0,0 0,-1 0,-1 0,0 0,0 0,0 0,0 0,0 0,0l2 0 0 -52z"/>
  <path id="2" class="fil2" d="M593 399l0 -10c0,-8 1,-14 4,-18 2,-2 4,-4 7,-4 4,0 7,2 9,6 2,4 3,10 3,16l0 11c0,9 -1,15 -4,18 -2,3 -4,4 -7,4 -2,0 -4,0 -5,-1 -2,-1 -3,-3 -4,-5 -2,-2 -2,-6 -3,-10 0,-4 0,-6 0,-7zm14 -25c0,-2 0,-3 -1,-4 0,-1 -1,-1 -2,-1 0,0 -1,0 -2,1 0,0 0,1 0,3l0 42c0,2 0,4 1,5 0,1 1,1 2,1 0,0 1,0 1,-1 1,0 1,-2 1,-3l0 -43z"/>
  <path id="3" class="fil2" d="M629 411c-2,-2 -4,-4 -5,-7 -1,-4 -2,-8 -2,-14 0,-9 1,-15 4,-19 2,-2 5,-4 8,-4 2,0 4,1 5,2 1,-1 2,-2 3,-3 1,-1 2,-1 3,-1 1,0 2,0 3,1 0,1 1,2 1,3 0,2 -1,3 -1,3 -1,1 -1,1 -2,1 0,0 -1,0 -1,-1 -1,0 -1,-1 -1,-2l0 0c0,-1 0,-1 0,-1 0,-1 0,-1 0,-1 0,0 -1,-1 -1,-1 -1,0 -1,1 -1,1 -1,1 -1,2 -2,3 3,4 5,10 5,19 0,8 -1,14 -4,18 -2,3 -5,4 -7,4 -1,0 -1,0 -2,0 0,0 -1,0 -3,0 -2,0 -4,0 -5,1 0,1 -1,1 -1,2 0,0 0,1 1,1 1,0 2,1 3,1l8 0c4,0 7,1 9,2 1,2 2,5 2,9 0,4 -1,7 -3,9 -3,2 -6,4 -10,4 -4,0 -8,-1 -10,-3 -2,-2 -3,-4 -3,-6 0,-2 0,-3 1,-4 1,-2 2,-3 3,-4 -1,-1 -2,-1 -3,-2 0,-1 0,-2 0,-4 0,-2 0,-4 1,-5 2,-1 4,-2 7,-2zm7 -39c0,-1 0,-2 -1,-3 0,0 -1,-1 -1,-1 -1,0 -2,1 -2,1 -1,1 -1,2 -1,3l0 34c0,2 0,3 1,4 0,1 1,1 2,1 0,0 1,0 1,-1 1,0 1,-1 1,-3l0 -35zm-11 53c-1,1 -2,2 -2,2 -1,1 -1,2 -1,3 0,2 1,4 3,5 2,2 5,2 8,2 4,0 7,0 9,-2 2,-2 3,-3 3,-5 0,-2 -1,-3 -2,-3 -1,-1 -4,-2 -7,-2l-3 0c-3,0 -6,0 -8,0z"/>
  <path id="4" class="fil2" d="M653 369l-2 0c0,0 -1,0 -1,0 0,0 0,0 0,0 0,-1 0,-1 0,-1 0,0 0,0 1,0l11 0 0 7c1,-3 2,-5 3,-6 1,-1 2,-2 3,-2 1,0 3,1 4,3 2,2 2,4 2,7 0,2 0,4 -1,6 -1,1 -2,2 -4,2 -1,0 -1,-1 -2,-2 -1,-1 -1,-3 -1,-5 0,-2 0,-4 1,-6 1,-1 1,-2 1,-2 0,0 0,-1 0,-1 0,0 0,0 -1,0 0,0 -1,0 -2,1 -1,1 -1,3 -2,5 -1,3 -1,6 -1,9l0 37 2 0c0,0 1,0 1,0 0,0 0,0 0,0l0 1c0,0 -1,0 -1,0l-13 0c0,0 -1,0 -1,0 0,0 0,-1 0,-1 0,0 0,0 0,0 0,0 1,0 1,0l2 0 0 -52z"/>
  <path id="5" class="fil2" d="M680 373c0,0 1,0 1,0 0,0 1,0 1,0 2,0 3,0 4,1 1,1 1,2 1,4 0,2 0,3 -1,4 -1,1 -3,1 -4,1 -2,0 -3,0 -4,-1 -1,-1 -1,-3 -1,-5 0,-2 1,-5 3,-7 2,-2 5,-3 9,-3 4,0 7,1 8,2 2,2 3,3 3,6l0 43c0,0 0,1 0,1 0,0 0,1 1,1 1,0 1,-1 2,-3 1,-1 1,-1 1,-1l1 1c0,1 -1,2 -3,3 -1,2 -3,2 -5,2 -2,0 -3,0 -4,-1 -1,-1 -2,-2 -2,-4 -2,2 -3,4 -4,4 -2,1 -3,1 -5,1 -2,0 -3,0 -4,-1 -1,-1 -2,-2 -2,-4l0 -19c0,-2 1,-3 2,-4 1,-1 3,-3 8,-4 2,-1 3,-1 5,-2l0 -14c0,-2 -1,-3 -2,-4 0,-1 -1,-1 -3,-1 -3,0 -5,1 -6,4zm11 17c-3,0 -4,1 -5,2 0,1 -1,2 -1,4l0 21c0,1 0,2 1,2 0,0 0,0 1,0 0,0 1,0 2,-1 1,-2 2,-5 2,-8l0 -20z"/>
  <path id="6" class="fil2" d="M716 421l1 0c1,0 1,0 1,0 0,0 0,1 -1,1l-12 0c0,0 0,-1 0,-1 0,0 0,0 0,0l2 0 0 -52 -2 0c0,0 0,0 0,0 0,-1 0,-1 0,-1l11 0 0 4c1,-2 3,-3 4,-4 1,0 2,-1 4,-1 1,0 3,1 4,1 1,1 2,3 2,5 1,-2 2,-4 3,-5 1,0 3,-1 4,-1 3,0 5,1 6,2 1,1 1,3 1,5l0 47 2 0c0,0 0,0 1,0 0,0 0,0 0,0l0 1c-1,0 -1,0 -1,0l-12 0c0,0 0,-1 0,-1 0,0 0,0 0,0l1 0 0 -49c0,-1 0,-1 0,-1 0,-1 -1,-1 -1,-1 -1,0 -1,1 -2,2 -1,2 -2,4 -2,7l0 42 1 0 1 0c0,0 0,0 0,0 0,0 0,1 -1,1l-11 0c0,0 0,-1 0,-1 0,0 0,0 0,0l1 0 0 -48c0,-1 0,-2 0,-2 0,-1 -1,-1 -1,-1 -1,0 -1,1 -2,1 -1,2 -2,4 -2,6l0 44z"/>
  <path id="7" class="fil2" d="M760 421l2 0c0,0 0,0 0,0 0,0 0,1 0,1l-12 0c-1,0 -1,-1 -1,-1 0,0 0,0 1,0l2 0 0 -52 -2 0c-1,0 -1,0 -1,0 0,-1 0,-1 1,-1l10 0 0 4c2,-2 3,-3 4,-4 1,0 2,-1 4,-1 2,0 3,1 4,1 1,1 2,3 2,5 2,-2 3,-4 4,-5 1,0 2,-1 4,-1 2,0 4,1 5,2 1,1 2,3 2,5l0 47 1 0c0,0 1,0 1,0 0,0 0,0 0,0l0 1c0,0 -1,0 -1,0l-11 0c-1,0 -1,-1 -1,-1 0,0 0,0 1,0l1 0 0 -49c0,-1 0,-1 -1,-1 0,-1 0,-1 -1,-1 0,0 -1,1 -2,2 -1,2 -2,4 -2,7l0 42 2 0 0 0c0,0 0,0 0,0 0,0 0,1 0,1l-12 0c0,0 0,-1 0,-1 0,0 0,0 0,0l2 0 0 -48c0,-1 -1,-2 -1,-2 0,-1 0,-1 -1,-1 -1,0 -1,1 -2,1 -1,2 -2,4 -2,6l0 44z"/>
  <path id="8" class="fil2" d="M795 351c0,-1 1,-3 2,-4 1,-1 2,-1 3,-1 2,0 3,0 4,1 1,1 2,3 2,4 0,2 -1,3 -2,4 -1,1 -2,1 -4,1 -1,0 -2,0 -3,-1 -1,-1 -2,-2 -2,-4zm1 18l-2 0c0,0 0,0 -1,0 0,0 0,0 0,0 0,-1 0,-1 0,-1 1,0 1,0 1,0l11 0 0 53 2 0c0,0 0,0 0,0 0,0 1,0 1,0 0,0 -1,1 -1,1 0,0 0,0 0,0l-13 0c0,0 -1,-1 -1,-1 0,0 1,0 1,0l2 0 0 -52z"/>
  <path id="9" class="fil2" d="M819 395l0 19c0,3 1,5 1,6 1,0 2,1 3,1 2,0 3,-1 5,-4 2,-3 3,-8 4,-14 0,-2 0,-3 0,-4 0,0 0,0 1,0 0,0 0,0 0,0 0,1 0,1 0,2 0,6 -1,11 -3,15 -2,4 -5,6 -8,6 -4,0 -6,-1 -8,-4 -3,-3 -4,-10 -4,-21l0 -7c0,-8 2,-14 5,-18 2,-3 4,-5 7,-5 4,0 7,2 9,6 1,4 2,8 2,14l0 8 -14 0zm5 -1l0 -22c0,-1 0,-2 0,-3 -1,0 -1,-1 -2,-1 -1,0 -1,1 -2,1 -1,1 -1,2 -1,3l0 22 5 0z"/>
  <path id="10" class="fil2" d="M839 369l-2 0c0,0 0,0 0,0 -1,0 -1,0 -1,0 0,-1 0,-1 1,-1 0,0 0,0 0,0l11 0 0 7c1,-3 2,-5 3,-6 1,-1 2,-2 3,-2 2,0 3,1 4,3 2,2 3,4 3,7 0,2 -1,4 -2,6 -1,1 -2,2 -3,2 -1,0 -2,-1 -3,-2 -1,-1 -1,-3 -1,-5 0,-2 0,-4 2,-6 0,-1 1,-2 1,-2 0,0 0,-1 -1,-1 0,0 0,0 0,0 -1,0 -2,0 -2,1 -1,1 -2,3 -3,5 -1,3 -1,6 -1,9l0 37 2 0c1,0 1,0 1,0 0,0 0,0 0,0l0 1c0,0 0,0 -1,0l-13 0c0,0 0,0 0,0 0,0 -1,-1 -1,-1 0,0 1,0 1,0 0,0 0,0 0,0l2 0 0 -52z"/>
  <path class="fil2" d="M545 700l0 -254 -12 0c-1,-1 -2,-2 -2,-3 0,0 1,-1 2,-2l52 0c15,0 28,6 38,17 10,11 15,26 15,46 0,12 -1,22 -5,31 -3,9 -8,16 -16,22 -4,4 -11,8 -20,11 9,4 16,7 21,11 7,6 13,13 16,21 4,9 6,19 6,32 0,16 -3,30 -8,42 -4,9 -10,16 -19,22 -8,5 -18,8 -30,8l-50 0c-1,0 -2,-1 -2,-2 0,0 1,-1 2,-2l12 0zm35 -254l0 120 10 0c4,0 7,-1 9,-3 2,-2 3,-6 3,-11l0 -91c0,-6 -1,-10 -3,-12 -2,-2 -6,-3 -12,-3l-7 0zm0 125l0 129 6 0c5,0 9,-2 12,-4 3,-3 4,-7 4,-12l0 -101c0,-5 -1,-8 -2,-10 -2,-2 -5,-2 -8,-2l-12 0z"/>
  <path id="1" class="fil2" d="M694 445l19 0 30 255 8 0c2,1 2,2 2,2 0,1 0,2 -2,2l-52 0c-1,0 -1,0 -1,0 -1,-1 -1,-1 -1,-2 0,0 0,-1 1,-1 0,-1 1,-1 1,-1l9 0 -5 -50 -32 0 -4 28c0,2 0,3 0,5 0,5 1,9 3,11 2,3 5,5 8,5l3 1c1,1 1,1 1,2 0,1 0,1 -1,2 0,0 -1,0 -1,0l-30 0c-1,0 -1,0 -2,0 0,-1 0,-1 0,-2 0,-1 0,-1 0,-2l2 -1c4,0 6,-2 8,-4 3,-4 5,-11 6,-20l30 -230zm-5 65l-18 136 31 0 -13 -136z"/>
  <path id="2" class="fil2" d="M771 446l-10 0c-1,-1 -2,-2 -2,-3 0,0 1,-1 2,-2l55 0c14,0 25,6 35,18 10,11 15,27 15,47 0,12 -1,22 -5,31 -4,9 -10,17 -17,22 -5,4 -12,7 -22,11 11,3 18,6 23,9 7,4 12,10 15,17 4,7 5,16 5,27l0 64c0,3 1,5 2,6 1,1 2,2 3,2 3,0 5,-2 7,-5 3,-4 5,-13 6,-25 0,-2 0,-3 1,-4 0,-1 1,-1 1,-1 1,0 2,0 2,1 1,1 1,3 1,5 0,13 -3,23 -9,30 -7,7 -14,11 -24,11 -8,0 -15,-2 -19,-7 -4,-4 -6,-10 -6,-18l0 -92c0,-8 -2,-13 -6,-16 -3,-2 -8,-2 -17,-2l0 128 9 0c1,0 1,0 2,1 0,0 1,1 1,1 0,1 -1,1 -1,2 -1,0 -1,0 -2,0l-56 0c0,0 -1,0 -1,0 -1,-1 -1,-1 -1,-2 0,0 0,-1 1,-1 0,-1 1,-1 2,-1l10 0 0 -254zm36 0l0 121 9 0c4,0 7,-1 10,-4 2,-3 4,-7 4,-12l0 -91c0,-5 -1,-9 -3,-11 -2,-2 -6,-3 -11,-3l-9 0z"/>
  <path class="fil2" d="M723 146c6,0 11,3 15,6l0 0 0 0c3,4 6,9 6,15 0,6 -3,11 -6,14l0 0 0 0c-4,4 -9,6 -15,6 -6,0 -11,-2 -14,-6l0 0 0 0c-4,-3 -6,-8 -6,-14 0,-6 2,-11 6,-15l0 0 0 0c3,-3 8,-6 14,-6zm10 11c-3,-2 -6,-4 -10,-4 -4,0 -7,2 -10,4l0 0c-2,3 -4,6 -4,10 0,4 2,7 4,10l0 0c3,2 6,4 10,4 4,0 7,-2 10,-4l0 0c2,-3 4,-6 4,-10 0,-4 -2,-7 -4,-10l0 0z"/>
  <rect class="fil3" width="1117" height="888"/>
  <ellipse class="fil1" transform="matrix(0.92699 0.375087 -0.375087 0.92699 362.861 534.222)" rx="74" ry="22"/>
 </g>
</svg>
