<?xml version="1.0" encoding="UTF-8"?>
<!DOCTYPE svg PUBLIC "-//W3C//DTD SVG 1.0//EN" "http://www.w3.org/TR/2001/REC-SVG-20010904/DTD/svg10.dtd">
<!-- Designer: Kingsley Odiboh -->
<svg xmlns="http://www.w3.org/2000/svg" xml:space="preserve" width="1.28867in" height="0.72313in" version="1.0" style="shape-rendering:geometricPrecision; text-rendering:geometricPrecision; image-rendering:optimizeQuality; fill-rule:evenodd; clip-rule:evenodd"
viewBox="0 0 369 207"
 xmlns:xlink="http://www.w3.org/1999/xlink">
 <defs>
  <style type="text/css">
   <![CDATA[
    .fil0 {fill:#FEFEFE}
    .fil1 {fill:black}
   ]]>
  </style>
 </defs>
 <g id="Layer_x0020_1">
  <path class="fil0" d="M95 154c1,0 1,0 1,-1 3,-2 3,-2 7,-3l38 -8c4,0 7,-1 10,-2l99 -20 -5 -15c-7,-24 -13,-51 -20,-76 -2,-5 -3,-10 -4,-15 -3,-8 -3,-11 -9,-11l-113 -2c-6,0 -11,-1 -18,-1l-21 0c-9,0 -1,19 1,26l18 69c1,3 2,6 3,10l0 0 12 -2 -4 1c-6,-20 -12,-41 -17,-61l-9 -33 151 0 28 104 -124 23c-3,0 -6,1 -9,2 -4,0 -7,1 -8,1l-7 14 0 0z"/>
  <path class="fil0" d="M98 155c0,2 0,2 2,3 1,1 2,1 3,2l34 14c14,6 52,21 64,27 3,1 5,2 8,3 11,6 18,2 31,-3l65 -24c16,-7 39,-14 56,-21 5,-2 7,-1 8,-5 -2,0 -2,-1 -4,-1 -11,-3 -27,-7 -38,-10l-25 -6c-11,-3 -22,-5 -33,-8 -5,-1 -12,-4 -18,-4 -4,0 -47,10 -52,11l-50 10c-13,3 -30,7 -42,9 -5,1 -6,2 -9,3zm163 23l-18 -8 40 -13 18 7 -40 14zm-150 -20c3,1 55,24 57,24l145 -42 -42 -11c-16,-4 -13,-4 -25,-1l-27 6c-14,3 -39,8 -54,12l-50 11c-2,0 -3,0 -4,1z"/>
  <path class="fil0" d="M194 201l-2 -1c-2,-1 -2,-1 -3,-2l-91 -38c0,5 2,5 9,8l38 14c4,2 8,4 12,5l19 7c2,1 3,2 6,3l12 4z"/>
  <path class="fil0" d="M46 60c2,-1 3,-3 6,-4 3,-1 6,-1 9,0 10,3 5,9 7,12 2,0 2,-2 5,-2 2,0 3,2 3,3 3,0 5,-1 7,1 1,1 1,5 1,6 1,1 2,0 4,1 1,1 0,3 0,5 0,1 2,2 2,4 -1,2 -2,2 -3,3 -2,1 -2,9 -7,11 -4,1 -6,-3 -8,-3 -1,2 -1,5 -3,5 -2,1 -4,0 -6,-1 -2,1 -1,3 -5,3 -2,-1 -3,-2 -4,-2 -2,2 -2,4 -5,6 -4,1 -6,0 -8,0 -1,2 3,7 -3,13 -4,3 -2,-1 -4,5 -2,8 -11,10 -15,4 -4,-4 -4,-11 -5,-13 -1,-1 -2,0 -3,-3 -1,-2 0,-5 -1,-7 -2,-1 -2,1 -4,-1 -1,0 -1,-1 -1,-3 -1,-1 -4,-2 -4,-5 -1,-2 0,-2 0,-4 0,-1 -1,-1 -1,-3 0,-3 2,-4 3,-5 0,-3 -3,-4 0,-8 2,-2 2,-2 5,-4 0,-5 -1,-10 8,-10 4,0 3,-3 6,-3 1,-1 2,0 3,1 4,4 2,0 6,-1 3,-1 3,1 5,1 2,-1 2,-3 5,-3 2,-1 4,0 5,1z"/>
  <path class="fil0" d="M86 154c-1,-1 -1,-2 -1,-3l2 0c5,-1 8,-4 9,-8 2,-5 1,-26 -1,-32 -2,-8 -6,-6 -9,-4 -1,1 -1,1 -1,1 -1,1 -1,1 -2,1l0 -3c0,-2 0,-5 0,-6 2,-2 2,-2 3,-4 20,-1 18,14 19,33 1,7 1,16 -2,22 -4,6 -12,10 -17,9l0 -6z"/>
  <path class="fil1" d="M14 126c1,1 1,3 2,5 1,0 1,0 1,1 2,4 -1,25 3,31 4,8 28,8 36,7 5,0 15,-2 18,-4 5,-4 4,-10 4,-18 0,-7 0,-14 0,-22 0,-7 -1,-15 -1,-21 0,-1 0,-2 0,-3l2 0 1 16 0 44 -12 10 -35 0 -17 -7 -2 -39z"/>
  <path class="fil0" d="M13 169c2,1 2,2 6,4 9,4 20,5 30,5 14,-1 29,-4 36,-11 1,2 3,9 2,13 -1,3 -7,5 -10,6 -8,3 -18,4 -27,5 -9,0 -20,-1 -28,-4 -3,0 -10,-3 -11,-5 -1,-3 1,-11 2,-13z"/>
  <path class="fil0" d="M80 102l1 -1 3 64c-1,1 -4,3 -6,5 -12,7 -36,7 -49,4 -8,-1 -11,-4 -15,-7l0 -42c0,0 0,0 0,0 0,0 0,0 0,1 1,1 1,3 2,5 1,0 1,0 1,1 2,4 -1,25 3,31 4,8 28,8 36,7 5,0 15,-2 18,-4 5,-4 4,-10 4,-18 0,-7 0,-14 0,-22 0,-7 -1,-15 -1,-21 0,-1 0,-2 0,-3l3 0z"/>
 </g>
</svg>
