<?xml version="1.0" encoding="UTF-8"?>
<!DOCTYPE svg PUBLIC "-//W3C//DTD SVG 1.0//EN" "http://www.w3.org/TR/2001/REC-SVG-20010904/DTD/svg10.dtd">
<!-- Designer: Odiboh Kingsley -->
<svg xmlns="http://www.w3.org/2000/svg" xml:space="preserve" width="0.533331in" height="0.533331in" version="1.0" style="shape-rendering:geometricPrecision; text-rendering:geometricPrecision; image-rendering:optimizeQuality; fill-rule:evenodd; clip-rule:evenodd"
viewBox="0 0 37 37"
 xmlns:xlink="http://www.w3.org/1999/xlink">
 <defs>
  <style type="text/css">
   <![CDATA[
    .fil0 {fill:black}
   ]]>
  </style>
 </defs>
 <g id="Layer_x0020_1">
  <path class="fil0" d="M9 18l0 -1c0,0 0,0 0,0 0,0 0,0 0,0 0,0 0,0 0,-1 0,0 0,0 0,0 0,0 0,0 0,0 0,0 0,-1 0,-1 0,0 -1,0 -1,0 0,-1 0,-2 0,-2l-1 -4 15 0 2 11 -12 2c0,0 0,0 -1,0 0,0 0,0 0,0 0,0 0,-1 0,-1 0,-2 0,-3 -2,-3zm2 6c1,0 6,2 6,2l14 -4 -4 -1c-1,0 -1,0 -2,0l-3 1c-1,0 -4,0 -5,1l-5 1c0,0 -1,0 -1,0zm15 2l-2 -1 4 -1 2 1 -4 1zm-16 -2c0,0 0,0 0,0 0,0 0,0 1,0l3 1c1,1 5,3 6,3 0,0 1,0 1,0 1,1 2,1 3,0l6 -2c2,-1 4,-2 6,-2 0,0 1,0 1,-1 -1,0 -1,0 -1,0 -1,0 -2,-1 -3,-1l-3 0c-1,-1 -2,-1 -3,-1 -1,0 -1,-1 -2,-1 0,0 -4,1 -5,1l-5 1c-1,1 -3,1 -4,1 0,0 0,0 -1,1 0,-1 1,-1 1,-1l0 0 3 -1c1,0 1,0 1,0l10 -2 0 -1c-1,-3 -2,-5 -2,-8 -1,0 -1,-1 -1,-1 0,-1 0,-1 -1,-1l-11 -1c0,0 -1,0 -2,0l-2 0c-1,0 0,2 0,3l1 4c0,0 0,0 0,0 0,0 0,-1 -1,-1 0,0 0,0 0,0 -1,0 -1,0 -1,0 0,0 0,0 -1,0 0,0 0,0 0,0 0,0 0,0 0,0 -1,1 -1,1 -1,0 0,0 0,0 0,0 -1,0 -1,1 -1,1 -1,0 -1,0 -1,1 0,0 0,0 0,0 0,0 0,1 0,1 0,0 -1,0 0,0 0,1 0,1 0,1 0,0 0,0 0,0 0,0 0,0 0,1 0,0 0,0 0,0 0,0 0,0 0,0 1,0 0,0 1,1 0,0 0,0 0,0 0,0 0,1 0,1 1,1 2,1 2,0 0,-1 0,0 0,-1 1,0 0,-1 0,-1 1,0 1,0 1,0 1,0 1,0 1,-1 0,0 0,1 0,1 1,0 1,-1 1,-1 0,0 0,1 0,0 0,0 0,0 1,0 0,0 0,0 0,0l0 0 0 0 0 0 0 0c0,0 0,1 0,1 0,0 0,1 0,2 0,1 0,1 0,2 0,1 0,1 0,2 -1,0 -2,0 -2,0 -1,0 -3,0 -4,-1 0,0 0,-2 0,-3 0,0 0,0 0,0 0,0 0,0 0,0 0,0 0,0 0,0 0,0 0,0 0,0l0 4c0,0 1,0 1,0 2,1 4,1 5,0 0,0 1,0 1,0l-1 -7 1 1 0 0 0 0 0 0 0 0c0,0 0,0 0,0 0,0 0,0 0,0 0,0 1,0 1,0 0,1 0,3 0,3 0,1 0,1 -1,1l0 0c0,0 0,0 0,1l0 0c0,0 1,0 1,0zm10 4l-1 0c0,0 0,0 0,0l-9 -4c0,1 0,1 1,1l4 1c0,0 0,1 1,1l2 0c0,1 0,1 0,1l2 0zm-18 -3c0,0 0,0 0,0 1,1 2,1 3,1 2,0 3,0 4,-1 0,0 0,1 0,1 0,0 -1,1 -1,1 -1,0 -2,0 -3,0 -1,0 -2,0 -2,0 -1,0 -1,0 -1,-1 -1,0 0,-1 0,-1zm-2 -25l37 0 0 37 -37 0 0 -37z"/>
 </g>
</svg>
