<svg id="svg" version="1.1" xmlns="http://www.w3.org/2000/svg" xmlns:xlink="http://www.w3.org/1999/xlink" width="400" height="400" viewBox="0, 0, 400,400">
          path {
            fill: #000;
        }
        @media (prefers-color-scheme: dark) {
            path {
                fill: #fff;
            }
        }
    </style>
    <path fill-rule="evenodd" d="M0 0h16v16H0z"/>
  <g id="svgg"><path id="path0" d="M86.300 107.605 C 83.563 109.306,83.958 116.091,87.382 126.150 C 87.915 127.718,88.833 130.800,89.422 133.000 C 90.011 135.200,90.663 137.630,90.873 138.400 C 91.082 139.170,91.406 140.430,91.593 141.200 C 91.780 141.970,93.214 147.280,94.779 153.000 C 96.344 158.720,97.758 164.112,97.921 164.983 C 98.191 166.428,98.361 166.602,99.882 166.983 C 100.798 167.212,101.976 167.805,102.499 168.300 C 103.540 169.284,106.000 169.562,106.000 168.696 C 106.000 168.419,105.384 165.944,104.631 163.196 C 102.417 155.116,101.623 152.143,99.985 145.800 C 99.133 142.500,97.967 138.180,97.395 136.200 C 96.822 134.220,95.992 131.250,95.550 129.600 C 95.109 127.950,94.382 125.250,93.935 123.600 C 92.378 117.848,92.265 117.131,92.857 116.756 C 93.558 116.312,226.829 116.304,227.529 116.748 C 227.820 116.932,228.235 117.784,228.451 118.641 C 228.668 119.499,229.003 120.740,229.197 121.400 C 229.390 122.060,230.566 126.290,231.810 130.800 C 233.053 135.310,234.221 139.540,234.405 140.200 C 234.589 140.860,235.493 144.190,236.414 147.600 C 237.336 151.010,238.537 155.420,239.083 157.400 C 239.630 159.380,240.591 162.890,241.218 165.200 C 241.846 167.510,242.635 170.390,242.971 171.600 C 244.647 177.622,246.126 183.022,247.189 187.000 C 247.836 189.420,248.651 192.390,249.000 193.600 C 249.350 194.810,250.000 197.150,250.445 198.800 C 250.890 200.450,251.692 203.365,252.227 205.278 C 252.762 207.191,253.200 208.850,253.200 208.964 C 253.200 209.400,251.327 210.166,249.600 210.437 C 248.610 210.592,246.810 210.907,245.600 211.136 C 244.390 211.365,241.240 211.942,238.600 212.419 C 233.052 213.421,231.459 213.718,226.800 214.618 C 220.650 215.806,219.845 215.957,215.200 216.799 C 212.670 217.257,209.610 217.823,208.400 218.056 C 207.190 218.289,205.390 218.623,204.400 218.798 C 203.410 218.973,201.070 219.422,199.200 219.795 C 193.313 220.972,185.614 222.408,180.800 223.229 C 179.590 223.435,177.790 223.769,176.800 223.970 C 171.576 225.035,168.377 225.654,166.400 225.983 C 161.630 226.776,152.910 228.395,151.294 228.787 C 150.356 229.014,149.199 229.200,148.723 229.200 C 148.246 229.200,147.304 229.378,146.628 229.595 C 145.953 229.812,142.430 230.539,138.800 231.210 C 135.170 231.881,131.856 232.504,131.435 232.595 C 129.443 233.022,129.345 232.640,129.056 223.320 C 128.337 200.115,126.023 194.743,116.314 193.728 C 113.517 193.436,112.817 192.979,112.456 191.210 C 112.144 189.685,111.319 189.162,110.966 190.267 C 110.238 192.547,109.297 194.194,107.839 195.737 C 106.937 196.692,106.200 197.724,106.200 198.032 C 106.200 198.340,105.660 198.688,105.000 198.805 L 103.800 199.019 103.890 201.809 C 105.714 258.445,106.154 256.049,93.400 258.977 C 91.860 259.331,89.790 259.841,88.800 260.110 C 84.846 261.186,67.261 260.751,61.929 259.446 C 51.054 256.782,50.445 255.664,50.134 237.800 C 49.935 226.380,49.916 226.177,48.966 224.709 C 48.435 223.888,48.000 223.044,48.000 222.832 C 48.000 222.151,47.122 221.879,46.761 222.449 C 46.569 222.752,46.409 230.633,46.406 239.962 L 46.400 256.924 48.021 258.466 C 58.287 268.231,93.855 268.025,107.128 258.123 L 110.056 255.938 109.802 249.869 C 109.662 246.531,109.375 240.110,109.164 235.600 C 108.953 231.090,108.611 222.990,108.403 217.600 C 108.196 212.210,107.911 206.689,107.770 205.332 C 107.629 203.974,107.629 202.677,107.770 202.449 C 108.184 201.779,109.199 202.411,109.206 203.343 C 109.218 205.021,109.811 205.422,111.017 204.568 C 118.742 199.101,121.600 204.659,121.600 225.148 C 121.600 236.514,119.504 241.618,114.424 242.626 C 111.257 243.255,111.385 243.059,111.543 247.016 C 111.626 249.094,111.878 250.734,112.143 250.919 C 113.174 251.638,117.513 250.694,120.849 249.025 C 122.271 248.314,122.319 248.316,123.449 249.151 C 124.082 249.619,129.550 252.087,135.600 254.636 C 141.650 257.185,147.550 259.705,148.712 260.235 C 149.873 260.766,150.920 261.200,151.037 261.200 C 151.155 261.200,152.264 261.663,153.501 262.229 C 154.738 262.795,159.451 264.759,163.975 266.594 C 168.499 268.429,174.270 270.773,176.800 271.803 C 182.972 274.316,200.056 281.465,202.800 282.683 C 204.010 283.220,205.540 283.899,206.200 284.192 C 232.226 295.738,231.236 295.622,247.897 289.081 C 254.879 286.340,261.881 283.720,268.600 281.334 C 270.140 280.788,272.030 280.094,272.800 279.794 C 273.570 279.493,276.720 278.324,279.800 277.194 C 296.070 271.229,306.237 267.470,314.400 264.402 C 317.810 263.120,322.940 261.229,325.800 260.201 C 346.093 252.902,354.514 249.840,356.600 249.001 C 357.920 248.471,360.207 247.655,361.683 247.189 C 366.542 245.654,367.805 243.633,364.600 242.522 C 362.918 241.938,352.417 239.197,349.000 238.449 C 345.094 237.594,333.766 234.855,331.600 234.242 C 330.390 233.899,327.870 233.244,326.000 232.786 C 313.023 229.605,300.019 226.417,291.800 224.401 C 286.520 223.106,280.670 221.671,278.800 221.213 C 276.930 220.755,274.410 220.102,273.200 219.762 C 264.359 217.275,260.267 216.912,254.600 218.114 C 250.925 218.893,246.240 219.852,236.600 221.799 C 232.860 222.555,228.630 223.431,227.200 223.747 C 225.770 224.062,222.440 224.799,219.800 225.384 C 217.160 225.969,212.390 226.995,209.200 227.664 C 206.010 228.333,202.770 229.021,202.000 229.193 C 201.230 229.366,198.350 229.969,195.600 230.535 C 189.171 231.858,181.757 233.419,178.200 234.198 C 176.660 234.536,173.240 235.251,170.600 235.788 C 167.960 236.324,163.190 237.331,160.000 238.026 C 156.810 238.721,153.480 239.445,152.600 239.636 C 151.720 239.827,149.740 240.265,148.200 240.610 C 146.660 240.955,144.500 241.394,143.400 241.585 C 142.300 241.776,140.500 242.132,139.400 242.377 C 133.036 243.795,126.785 244.918,126.553 244.686 C 125.635 243.768,128.127 242.264,131.600 241.638 C 133.676 241.264,136.902 240.593,148.200 238.186 C 150.840 237.624,155.160 236.728,157.800 236.195 C 160.440 235.663,163.860 234.945,165.400 234.599 C 171.294 233.278,174.044 232.689,181.600 231.126 C 185.890 230.239,190.120 229.362,191.000 229.176 C 191.880 228.991,197.010 227.934,202.400 226.828 C 207.790 225.722,213.460 224.544,215.000 224.210 C 216.540 223.877,221.400 222.868,225.800 221.968 C 230.200 221.067,235.780 219.916,238.200 219.410 C 240.620 218.903,246.020 217.808,250.200 216.975 C 258.860 215.250,258.962 215.204,258.601 213.226 C 258.299 211.571,255.414 201.044,254.539 198.403 C 253.656 195.738,249.746 181.492,247.017 171.000 C 246.273 168.140,245.303 164.450,244.861 162.800 C 244.419 161.150,243.244 156.740,242.250 153.000 C 241.255 149.260,240.147 145.120,239.786 143.800 C 239.426 142.480,238.983 140.860,238.803 140.200 C 238.623 139.540,237.633 135.940,236.603 132.200 C 235.573 128.460,234.585 124.860,234.408 124.200 C 231.536 113.521,230.622 111.428,228.418 110.483 C 226.917 109.839,228.737 109.896,175.600 108.815 C 163.390 108.566,146.200 108.174,137.400 107.944 C 111.558 107.267,87.105 107.104,86.300 107.605 M273.800 222.408 C 276.220 223.101,278.830 223.819,279.600 224.003 C 280.370 224.187,281.360 224.437,281.800 224.558 C 285.323 225.525,313.687 232.400,314.154 232.400 C 315.820 232.400,315.058 233.925,313.159 234.392 C 312.411 234.576,309.820 235.303,307.400 236.009 C 304.980 236.715,302.460 237.432,301.800 237.603 C 301.140 237.774,293.940 239.845,285.800 242.205 C 277.660 244.566,269.470 246.911,267.600 247.416 C 265.730 247.922,263.030 248.690,261.600 249.123 C 260.170 249.557,258.640 250.004,258.200 250.116 C 257.760 250.228,255.870 250.772,254.000 251.325 C 252.130 251.878,249.610 252.604,248.400 252.938 C 247.190 253.272,245.300 253.813,244.200 254.141 C 240.735 255.171,230.652 258.054,229.400 258.371 C 228.740 258.539,226.940 259.059,225.400 259.527 C 222.536 260.398,209.669 264.097,200.000 266.830 C 197.030 267.669,192.980 268.836,191.000 269.422 C 185.127 271.160,184.923 271.138,178.197 268.027 C 176.875 267.415,175.345 266.775,174.797 266.603 C 174.248 266.431,172.670 265.775,171.290 265.145 C 169.909 264.515,168.683 264.000,168.564 264.000 C 168.446 264.000,167.325 263.531,166.074 262.958 C 163.341 261.707,142.758 253.063,138.085 251.205 C 133.150 249.242,133.555 248.970,145.000 246.555 C 152.554 244.962,156.622 244.078,167.800 241.604 C 179.055 239.113,180.906 238.708,191.400 236.447 C 196.680 235.310,202.080 234.118,203.400 233.798 C 204.720 233.479,208.860 232.581,212.600 231.803 C 216.340 231.025,220.480 230.130,221.800 229.814 C 223.120 229.498,226.090 228.786,228.400 228.231 C 231.868 227.398,240.785 225.384,247.200 223.985 C 247.970 223.818,251.210 223.101,254.400 222.394 C 264.239 220.212,266.137 220.213,273.800 222.408 M291.800 250.413 C 292.240 250.603,294.490 251.519,296.800 252.447 C 304.464 255.528,305.785 254.578,283.000 262.378 C 279.040 263.733,275.440 264.996,275.000 265.184 C 270.348 267.170,270.094 267.173,266.161 265.273 C 264.423 264.432,261.687 263.137,260.083 262.394 C 256.646 260.802,256.339 259.843,259.000 259.018 C 259.880 258.745,262.400 257.968,264.600 257.291 C 266.800 256.614,271.570 255.133,275.200 253.999 C 290.788 249.132,289.488 249.412,291.800 250.413 M122.800 252.981 C 122.800 254.588,124.593 256.104,128.000 257.377 C 129.650 257.994,133.250 259.369,136.000 260.433 C 147.158 264.749,152.845 266.957,157.600 268.817 C 160.350 269.892,165.120 271.750,168.200 272.945 C 171.280 274.140,176.410 276.144,179.600 277.398 C 182.790 278.653,187.110 280.301,189.200 281.060 C 191.290 281.819,193.313 282.611,193.695 282.820 C 194.077 283.029,194.707 283.206,195.095 283.213 C 195.483 283.220,196.149 283.490,196.576 283.813 C 197.004 284.136,197.769 284.400,198.276 284.400 C 198.784 284.400,199.200 284.580,199.200 284.800 C 199.200 285.020,199.785 285.186,200.500 285.168 L 201.800 285.137 200.600 284.708 C 199.940 284.473,199.310 284.164,199.200 284.023 C 199.090 283.882,194.410 281.815,188.800 279.429 C 183.190 277.043,177.700 274.691,176.600 274.202 C 175.500 273.713,172.530 272.459,170.000 271.415 C 167.470 270.371,164.837 269.268,164.149 268.963 C 163.461 268.658,155.430 265.273,146.302 261.440 C 137.174 257.608,128.665 253.996,127.393 253.414 C 123.762 251.753,122.800 251.663,122.800 252.981 M108.200 259.650 C 96.231 268.967,60.656 269.685,48.272 260.859 C 45.798 259.096,45.375 259.457,44.554 264.035 C 43.485 269.997,44.149 271.960,47.850 273.772 C 63.950 281.655,102.357 279.729,111.204 270.595 C 112.584 269.170,112.600 269.115,112.585 265.677 C 112.556 259.202,111.189 257.323,108.200 259.650 " stroke="none" fill="#0e0c09" fill-rule="evenodd"></path><path id="path1" d="M0.000 200.000 L 0.000 400.000 200.000 400.000 L 400.000 400.000 400.000 200.000 L 400.000 0.000 200.000 0.000 L 0.000 0.000 0.000 200.000 M137.400 107.944 C 146.200 108.174,163.390 108.566,175.600 108.815 C 228.737 109.896,226.917 109.839,228.418 110.483 C 230.622 111.428,231.536 113.521,234.408 124.200 C 234.585 124.860,235.573 128.460,236.603 132.200 C 237.633 135.940,238.623 139.540,238.803 140.200 C 238.983 140.860,239.426 142.480,239.786 143.800 C 240.147 145.120,241.255 149.260,242.250 153.000 C 243.244 156.740,244.419 161.150,244.861 162.800 C 245.303 164.450,246.273 168.140,247.017 171.000 C 249.746 181.492,253.656 195.738,254.539 198.403 C 255.414 201.044,258.299 211.571,258.601 213.226 C 258.962 215.204,258.860 215.250,250.200 216.975 C 246.020 217.808,240.620 218.903,238.200 219.410 C 235.780 219.916,230.200 221.067,225.800 221.968 C 221.400 222.868,216.540 223.877,215.000 224.210 C 213.460 224.544,207.790 225.722,202.400 226.828 C 197.010 227.934,191.880 228.991,191.000 229.176 C 190.120 229.362,185.890 230.239,181.600 231.126 C 174.044 232.689,171.294 233.278,165.400 234.599 C 163.860 234.945,160.440 235.663,157.800 236.195 C 155.160 236.728,150.840 237.624,148.200 238.186 C 136.902 240.593,133.676 241.264,131.600 241.638 C 128.127 242.264,125.635 243.768,126.553 244.686 C 126.785 244.918,133.036 243.795,139.400 242.377 C 140.500 242.132,142.300 241.776,143.400 241.585 C 144.500 241.394,146.660 240.955,148.200 240.610 C 149.740 240.265,151.720 239.827,152.600 239.636 C 153.480 239.445,156.810 238.721,160.000 238.026 C 163.190 237.331,167.960 236.324,170.600 235.788 C 173.240 235.251,176.660 234.536,178.200 234.198 C 181.757 233.419,189.171 231.858,195.600 230.535 C 198.350 229.969,201.230 229.366,202.000 229.193 C 202.770 229.021,206.010 228.333,209.200 227.664 C 212.390 226.995,217.160 225.969,219.800 225.384 C 222.440 224.799,225.770 224.062,227.200 223.747 C 228.630 223.431,232.860 222.555,236.600 221.799 C 246.240 219.852,250.925 218.893,254.600 218.114 C 260.267 216.912,264.359 217.275,273.200 219.762 C 274.410 220.102,276.930 220.755,278.800 221.213 C 280.670 221.671,286.520 223.106,291.800 224.401 C 300.019 226.417,313.023 229.605,326.000 232.786 C 327.870 233.244,330.390 233.899,331.600 234.242 C 333.766 234.855,345.094 237.594,349.000 238.449 C 352.417 239.197,362.918 241.938,364.600 242.522 C 367.805 243.633,366.542 245.654,361.683 247.189 C 360.207 247.655,357.920 248.471,356.600 249.001 C 354.514 249.840,346.093 252.902,325.800 260.201 C 322.940 261.229,317.810 263.120,314.400 264.402 C 306.237 267.470,296.070 271.229,279.800 277.194 C 276.720 278.324,273.570 279.493,272.800 279.794 C 272.030 280.094,270.140 280.788,268.600 281.334 C 261.881 283.720,254.879 286.340,247.897 289.081 C 231.236 295.622,232.226 295.738,206.200 284.192 C 205.540 283.899,204.010 283.220,202.800 282.683 C 200.056 281.465,182.972 274.316,176.800 271.803 C 174.270 270.773,168.499 268.429,163.975 266.594 C 159.451 264.759,154.738 262.795,153.501 262.229 C 152.264 261.663,151.155 261.200,151.037 261.200 C 150.920 261.200,149.873 260.766,148.712 260.235 C 147.550 259.705,141.650 257.185,135.600 254.636 C 129.550 252.087,124.082 249.619,123.449 249.151 C 122.319 248.316,122.271 248.314,120.849 249.025 C 117.513 250.694,113.174 251.638,112.143 250.919 C 111.878 250.734,111.626 249.094,111.543 247.016 C 111.385 243.059,111.257 243.255,114.424 242.626 C 119.504 241.618,121.600 236.514,121.600 225.148 C 121.600 204.659,118.742 199.101,111.017 204.568 C 109.811 205.422,109.218 205.021,109.206 203.343 C 109.199 202.411,108.184 201.779,107.770 202.449 C 107.629 202.677,107.629 203.974,107.770 205.332 C 107.911 206.689,108.196 212.210,108.403 217.600 C 108.611 222.990,108.953 231.090,109.164 235.600 C 109.375 240.110,109.662 246.531,109.802 249.869 L 110.056 255.938 107.128 258.123 C 93.855 268.025,58.287 268.231,48.021 258.466 L 46.400 256.924 46.406 239.962 C 46.409 230.633,46.569 222.752,46.761 222.449 C 47.122 221.879,48.000 222.151,48.000 222.832 C 48.000 223.044,48.435 223.888,48.966 224.709 C 49.916 226.177,49.935 226.380,50.134 237.800 C 50.445 255.664,51.054 256.782,61.929 259.446 C 67.261 260.751,84.846 261.186,88.800 260.110 C 89.790 259.841,91.860 259.331,93.400 258.977 C 105.456 256.209,105.614 255.635,104.434 218.800 C 104.184 210.990,103.939 203.344,103.890 201.809 L 103.800 199.019 105.000 198.805 C 105.660 198.688,106.200 198.340,106.200 198.032 C 106.200 197.724,106.937 196.692,107.839 195.737 C 109.297 194.194,110.238 192.547,110.966 190.267 C 111.319 189.162,112.144 189.685,112.456 191.210 C 112.817 192.979,113.517 193.436,116.314 193.728 C 126.023 194.743,128.337 200.115,129.056 223.320 C 129.345 232.640,129.443 233.022,131.435 232.595 C 131.856 232.504,135.170 231.881,138.800 231.210 C 142.430 230.539,145.953 229.812,146.628 229.595 C 147.304 229.378,148.246 229.200,148.723 229.200 C 149.199 229.200,150.356 229.014,151.294 228.787 C 152.910 228.395,161.630 226.776,166.400 225.983 C 168.377 225.654,171.576 225.035,176.800 223.970 C 177.790 223.769,179.590 223.435,180.800 223.229 C 185.614 222.408,193.313 220.972,199.200 219.795 C 201.070 219.422,203.410 218.973,204.400 218.798 C 205.390 218.623,207.190 218.289,208.400 218.056 C 209.610 217.823,212.670 217.257,215.200 216.799 C 219.845 215.957,220.650 215.806,226.800 214.618 C 231.459 213.718,233.052 213.421,238.600 212.419 C 241.240 211.942,244.390 211.365,245.600 211.136 C 246.810 210.907,248.610 210.592,249.600 210.437 C 251.327 210.166,253.200 209.400,253.200 208.964 C 253.200 208.850,252.762 207.191,252.227 205.278 C 251.692 203.365,250.890 200.450,250.445 198.800 C 250.000 197.150,249.350 194.810,249.000 193.600 C 248.651 192.390,247.836 189.420,247.189 187.000 C 246.126 183.022,244.647 177.622,242.971 171.600 C 242.635 170.390,241.846 167.510,241.218 165.200 C 240.591 162.890,239.630 159.380,239.083 157.400 C 238.537 155.420,237.336 151.010,236.414 147.600 C 235.493 144.190,234.589 140.860,234.405 140.200 C 234.221 139.540,233.053 135.310,231.810 130.800 C 230.566 126.290,229.390 122.060,229.197 121.400 C 229.003 120.740,228.668 119.499,228.451 118.641 C 228.235 117.784,227.820 116.932,227.529 116.748 C 226.829 116.304,93.558 116.312,92.857 116.756 C 92.265 117.131,92.378 117.848,93.935 123.600 C 94.382 125.250,95.109 127.950,95.550 129.600 C 95.992 131.250,96.822 134.220,97.395 136.200 C 97.967 138.180,99.133 142.500,99.985 145.800 C 101.623 152.143,102.417 155.116,104.631 163.196 C 105.384 165.944,106.000 168.419,106.000 168.696 C 106.000 169.562,103.540 169.284,102.499 168.300 C 101.976 167.805,100.798 167.212,99.882 166.983 C 98.361 166.602,98.191 166.428,97.921 164.983 C 97.758 164.112,96.344 158.720,94.779 153.000 C 93.214 147.280,91.780 141.970,91.593 141.200 C 91.406 140.430,91.082 139.170,90.873 138.400 C 90.663 137.630,90.011 135.200,89.422 133.000 C 88.833 130.800,87.915 127.718,87.382 126.150 C 83.958 116.091,83.563 109.306,86.300 107.605 C 87.105 107.104,111.558 107.267,137.400 107.944 M227.129 117.148 C 227.420 117.332,227.825 118.139,228.029 118.941 C 228.233 119.744,228.563 120.985,228.762 121.700 C 228.962 122.415,229.675 125.070,230.347 127.600 C 231.019 130.130,231.860 133.190,232.216 134.400 C 232.572 135.610,233.015 137.230,233.200 138.000 C 233.385 138.770,233.832 140.390,234.193 141.600 C 234.554 142.810,235.277 145.420,235.798 147.400 C 236.320 149.380,237.038 151.990,237.394 153.200 C 237.750 154.410,238.200 156.030,238.394 156.800 C 238.848 158.601,239.295 160.248,240.404 164.200 C 240.898 165.960,241.444 168.030,241.619 168.800 C 241.794 169.570,242.233 171.190,242.596 172.400 C 243.384 175.030,243.615 175.857,244.936 180.800 C 246.646 187.196,247.228 189.318,247.847 191.400 C 248.174 192.500,248.602 194.030,248.799 194.800 C 249.154 196.191,250.150 199.904,250.783 202.200 C 250.965 202.860,251.394 204.437,251.736 205.705 C 252.079 206.972,252.469 208.188,252.603 208.406 C 253.051 209.130,250.359 209.828,241.000 211.409 C 237.645 211.976,235.993 212.287,230.400 213.405 C 228.530 213.778,226.190 214.227,225.200 214.401 C 224.210 214.575,221.780 215.019,219.800 215.388 C 217.820 215.756,214.850 216.305,213.200 216.607 C 209.689 217.250,206.945 217.777,202.800 218.604 C 201.150 218.933,198.810 219.372,197.600 219.579 C 195.541 219.932,193.800 220.255,185.500 221.824 C 183.685 222.167,181.300 222.605,180.200 222.797 C 179.100 222.990,176.760 223.444,175.000 223.808 C 173.240 224.171,171.260 224.560,170.600 224.671 C 169.565 224.846,166.046 225.484,158.800 226.811 C 154.747 227.553,149.646 228.516,147.200 229.000 C 145.770 229.283,142.980 229.817,141.000 230.187 C 139.020 230.557,136.500 231.030,135.400 231.238 C 134.300 231.447,132.656 231.724,131.746 231.855 L 130.092 232.094 129.853 228.547 C 129.721 226.596,129.504 221.760,129.372 217.800 C 128.776 199.980,124.594 192.800,114.809 192.800 C 112.522 192.800,112.059 189.275,114.025 186.828 C 115.328 185.207,115.623 183.538,114.859 182.109 C 114.606 181.638,114.400 180.419,114.400 179.400 C 114.400 177.455,113.864 176.000,113.148 176.000 C 111.994 176.000,110.458 174.325,110.197 172.784 C 109.912 171.095,108.302 168.800,107.404 168.800 C 106.595 168.800,106.620 168.882,101.774 150.400 C 99.209 140.618,99.097 140.204,98.195 137.200 C 97.831 135.990,97.443 134.550,97.332 134.000 C 97.222 133.450,96.896 132.190,96.609 131.200 C 96.049 129.268,95.029 125.594,94.332 123.000 C 94.095 122.120,93.641 120.549,93.322 119.509 C 93.003 118.469,92.855 117.434,92.994 117.209 C 93.306 116.704,226.334 116.644,227.129 117.148 M88.372 158.061 C 93.211 159.622,94.400 160.979,94.400 164.943 C 94.400 168.108,95.416 169.305,97.210 168.253 C 98.881 167.272,101.315 167.560,102.370 168.863 C 102.975 169.610,103.522 169.801,105.065 169.806 C 107.757 169.815,109.600 171.745,109.600 174.557 C 109.600 175.229,109.886 175.637,110.492 175.829 C 112.689 176.526,113.567 177.620,113.491 179.562 C 113.449 180.643,113.704 181.961,114.110 182.761 C 115.057 184.630,115.055 184.636,112.787 186.928 C 111.680 188.046,110.665 189.420,110.530 189.981 C 109.833 192.884,107.236 196.400,105.787 196.400 C 104.366 196.400,102.791 199.173,102.995 201.316 C 103.527 206.896,104.038 222.909,104.115 236.400 L 104.200 251.400 103.199 253.188 C 101.792 255.700,99.218 257.003,92.200 258.756 C 81.310 261.475,63.634 260.575,56.092 256.919 C 51.443 254.665,51.123 253.575,50.935 239.400 C 50.777 227.527,50.659 225.929,49.877 225.113 C 49.607 224.831,49.034 223.790,48.604 222.800 C 48.174 221.810,47.658 220.884,47.456 220.743 C 46.813 220.289,46.665 216.421,47.227 214.719 C 47.752 213.129,47.739 213.080,46.513 211.985 C 44.768 210.426,44.403 209.582,44.137 206.498 C 43.882 203.539,43.361 202.800,41.532 202.800 C 40.636 202.800,40.258 202.490,39.613 201.226 C 39.172 200.361,38.428 199.385,37.959 199.057 C 36.001 197.685,35.089 194.902,36.025 193.153 C 36.344 192.557,36.284 191.922,35.783 190.612 C 35.014 188.598,35.480 186.331,36.838 185.484 C 37.619 184.996,37.901 183.033,37.248 182.630 C 35.918 181.807,36.768 178.507,38.798 176.611 C 39.427 176.023,40.405 175.114,40.971 174.589 C 41.816 173.807,42.000 173.273,42.000 171.605 C 42.000 167.453,43.006 166.415,48.000 165.416 C 50.164 164.983,51.231 164.552,51.828 163.869 C 53.234 162.262,54.391 162.249,56.594 163.816 C 58.754 165.352,59.547 165.339,61.155 163.746 C 62.209 162.701,64.101 162.499,65.756 163.253 C 66.640 163.656,66.940 163.542,68.475 162.224 C 70.324 160.636,70.344 160.633,75.400 161.417 C 76.777 161.630,77.135 161.521,77.970 160.632 C 78.503 160.065,79.142 159.600,79.390 159.600 C 79.637 159.600,80.063 159.377,80.337 159.103 C 81.624 157.816,85.895 157.262,88.372 158.061 M71.301 209.800 C 71.305 210.680,71.387 210.993,71.483 210.495 C 71.579 209.998,71.575 209.278,71.475 208.895 C 71.375 208.513,71.296 208.920,71.301 209.800 M262.600 220.851 C 261.280 220.992,257.590 221.686,254.400 222.394 C 251.210 223.101,247.970 223.818,247.200 223.985 C 229.351 227.878,217.955 230.662,221.600 230.239 C 222.370 230.150,224.080 229.806,225.400 229.475 C 226.720 229.144,229.870 228.408,232.400 227.838 C 234.930 227.269,238.170 226.529,239.600 226.195 C 241.030 225.861,243.010 225.425,244.000 225.225 C 244.990 225.026,247.060 224.563,248.600 224.198 C 260.219 221.440,265.934 220.689,268.762 221.551 C 271.158 222.281,280.062 224.644,285.600 226.020 C 292.355 227.699,293.826 228.055,295.400 228.395 C 296.280 228.586,298.438 229.119,300.195 229.582 C 301.952 230.044,303.662 230.368,303.995 230.303 C 304.500 230.203,292.155 226.976,283.400 224.920 C 279.226 223.939,278.302 223.698,273.800 222.408 C 268.496 220.889,265.783 220.512,262.600 220.851 M212.200 231.817 C 208.900 232.546,205.030 233.418,203.600 233.756 C 202.170 234.093,196.680 235.292,191.400 236.421 C 186.120 237.549,181.710 238.571,181.600 238.691 C 181.334 238.982,183.981 238.592,187.200 237.866 C 188.630 237.543,191.600 236.893,193.800 236.422 C 196.000 235.950,198.970 235.295,200.400 234.966 C 203.263 234.307,204.674 234.001,210.600 232.751 C 217.870 231.217,219.751 230.782,219.943 230.590 C 220.366 230.168,217.897 230.559,212.200 231.817 M305.200 230.741 C 305.530 230.916,307.555 231.474,309.700 231.983 C 313.966 232.994,314.566 233.624,311.900 234.290 C 309.800 234.816,303.293 236.625,300.600 237.433 C 296.584 238.637,292.977 239.664,288.200 240.963 C 286.220 241.502,283.700 242.234,282.600 242.590 C 280.897 243.142,277.863 244.015,272.200 245.582 C 270.019 246.185,266.633 247.152,264.400 247.809 C 263.190 248.164,261.660 248.609,261.000 248.797 C 260.340 248.986,257.820 249.707,255.400 250.400 C 252.980 251.093,250.460 251.812,249.800 251.996 C 248.684 252.308,245.829 253.146,243.000 253.991 C 242.340 254.189,240.180 254.791,238.200 255.329 C 236.220 255.868,233.610 256.613,232.400 256.985 C 230.317 257.626,219.914 260.624,218.200 261.077 C 217.760 261.193,216.230 261.643,214.800 262.077 C 212.458 262.788,210.080 263.465,206.600 264.413 C 205.940 264.592,203.420 265.307,201.000 266.000 C 198.580 266.693,196.060 267.412,195.400 267.597 C 194.740 267.782,193.570 268.134,192.800 268.380 C 185.669 270.652,185.262 270.651,180.121 268.372 C 179.064 267.904,177.840 267.370,177.400 267.186 C 176.960 267.001,175.372 266.299,173.872 265.625 C 172.372 264.951,170.987 264.400,170.796 264.400 C 170.604 264.400,168.896 263.680,167.000 262.800 C 165.104 261.920,163.329 261.200,163.056 261.200 C 162.783 261.200,162.389 261.047,162.180 260.860 C 161.971 260.672,156.490 258.318,150.000 255.627 C 143.510 252.936,137.570 250.455,136.800 250.113 L 135.400 249.491 137.000 248.981 C 137.880 248.701,140.040 248.171,141.800 247.804 C 146.847 246.749,150.289 245.999,154.600 245.015 C 156.800 244.512,159.680 243.876,161.000 243.600 C 162.320 243.324,164.840 242.784,166.600 242.400 C 168.360 242.016,170.880 241.479,172.200 241.208 C 173.520 240.936,175.050 240.565,175.600 240.382 C 176.150 240.199,177.410 239.928,178.400 239.779 C 179.390 239.631,180.470 239.356,180.800 239.167 C 182.025 238.467,181.658 238.536,167.800 241.604 C 156.638 244.075,152.561 244.960,145.000 246.555 C 133.555 248.970,133.150 249.242,138.085 251.205 C 142.758 253.063,163.341 261.707,166.074 262.958 C 167.325 263.531,168.446 264.000,168.564 264.000 C 168.683 264.000,169.909 264.515,171.290 265.145 C 172.670 265.775,174.248 266.431,174.797 266.603 C 175.345 266.775,176.875 267.415,178.197 268.027 C 184.923 271.138,185.127 271.160,191.000 269.422 C 192.980 268.836,197.030 267.669,200.000 266.830 C 209.669 264.097,222.536 260.398,225.400 259.527 C 226.940 259.059,228.740 258.539,229.400 258.371 C 230.652 258.054,240.735 255.171,244.200 254.141 C 245.300 253.813,247.190 253.272,248.400 252.938 C 249.610 252.604,252.130 251.878,254.000 251.325 C 255.870 250.772,257.760 250.228,258.200 250.116 C 258.640 250.004,260.170 249.557,261.600 249.123 C 263.030 248.690,265.730 247.922,267.600 247.416 C 269.470 246.911,277.660 244.566,285.800 242.205 C 293.940 239.845,301.140 237.774,301.800 237.603 C 302.460 237.432,304.980 236.715,307.400 236.009 C 309.820 235.303,312.427 234.572,313.193 234.384 C 314.521 234.058,315.014 233.586,314.730 232.912 C 314.598 232.598,306.297 230.435,305.200 230.428 C 304.667 230.425,304.667 230.460,305.200 230.741 M288.600 249.917 C 287.780 250.080,286.613 250.435,275.200 253.999 C 271.570 255.133,266.800 256.614,264.600 257.291 C 262.400 257.968,259.880 258.745,259.000 259.018 C 256.339 259.843,256.646 260.802,260.083 262.394 C 261.687 263.137,264.423 264.432,266.161 265.273 C 270.094 267.173,270.348 267.170,275.000 265.184 C 275.440 264.996,279.040 263.733,283.000 262.378 C 305.785 254.578,304.464 255.528,296.800 252.447 C 294.490 251.519,292.240 250.603,291.800 250.413 C 290.639 249.911,289.513 249.736,288.600 249.917 M295.040 252.400 C 297.641 253.500,300.014 254.400,300.314 254.400 C 301.484 254.400,300.515 255.740,299.000 256.215 C 298.120 256.492,294.790 257.647,291.600 258.782 C 288.410 259.917,284.540 261.272,283.000 261.792 C 281.460 262.312,277.950 263.535,275.200 264.510 C 272.450 265.486,269.930 266.199,269.600 266.095 C 269.270 265.991,266.773 264.847,264.050 263.553 C 261.328 262.259,258.962 261.200,258.793 261.200 C 258.250 261.200,257.996 259.975,258.507 259.818 C 258.778 259.735,259.810 259.398,260.800 259.070 C 261.790 258.742,263.950 258.075,265.600 257.587 C 267.250 257.100,269.320 256.475,270.200 256.197 C 271.080 255.920,274.140 254.963,277.000 254.070 C 279.860 253.177,283.550 252.008,285.200 251.472 C 289.370 250.116,289.717 250.149,295.040 252.400 M127.393 253.414 C 128.665 253.996,137.174 257.608,146.302 261.440 C 155.430 265.273,163.461 268.658,164.149 268.963 C 164.837 269.268,167.470 270.371,170.000 271.415 C 172.530 272.459,175.500 273.713,176.600 274.202 C 177.700 274.691,183.190 277.043,188.800 279.429 C 194.410 281.815,199.090 283.882,199.200 284.023 C 199.310 284.164,199.940 284.473,200.600 284.708 L 201.800 285.137 200.500 285.168 C 199.785 285.186,199.200 285.020,199.200 284.800 C 199.200 284.580,198.784 284.400,198.276 284.400 C 197.769 284.400,197.004 284.136,196.576 283.813 C 196.149 283.490,195.483 283.220,195.095 283.213 C 194.707 283.206,194.077 283.029,193.695 282.820 C 193.313 282.611,191.290 281.819,189.200 281.060 C 187.110 280.301,182.790 278.653,179.600 277.398 C 176.410 276.144,171.280 274.140,168.200 272.945 C 165.120 271.750,160.350 269.892,157.600 268.817 C 152.845 266.957,147.158 264.749,136.000 260.433 C 133.250 259.369,129.650 257.994,128.000 257.377 C 124.593 256.104,122.800 254.588,122.800 252.981 C 122.800 251.663,123.762 251.753,127.393 253.414 M111.927 260.400 C 113.200 263.968,112.850 268.896,111.204 270.595 C 102.357 279.729,63.950 281.655,47.850 273.772 C 44.149 271.960,43.485 269.997,44.554 264.035 C 45.375 259.457,45.798 259.096,48.272 260.859 C 60.656 269.685,96.231 268.967,108.200 259.650 C 110.323 257.997,111.129 258.159,111.927 260.400 " stroke="none" fill="#f3b444" fill-rule="evenodd"></path><path id="path2" d="M92.994 117.209 C 92.855 117.434,93.003 118.469,93.322 119.509 C 93.641 120.549,94.095 122.120,94.332 123.000 C 95.029 125.594,96.049 129.268,96.609 131.200 C 96.896 132.190,97.222 133.450,97.332 134.000 C 97.443 134.550,97.831 135.990,98.195 137.200 C 99.097 140.204,99.209 140.618,101.774 150.400 C 106.620 168.882,106.595 168.800,107.404 168.800 C 108.302 168.800,109.912 171.095,110.197 172.784 C 110.458 174.325,111.994 176.000,113.148 176.000 C 113.864 176.000,114.400 177.455,114.400 179.400 C 114.400 180.419,114.606 181.638,114.859 182.109 C 115.623 183.538,115.328 185.207,114.025 186.828 C 112.059 189.275,112.522 192.800,114.809 192.800 C 124.594 192.800,128.776 199.980,129.372 217.800 C 129.504 221.760,129.721 226.596,129.853 228.547 L 130.092 232.094 131.746 231.855 C 132.656 231.724,134.300 231.447,135.400 231.238 C 136.500 231.030,139.020 230.557,141.000 230.187 C 142.980 229.817,145.770 229.283,147.200 229.000 C 149.646 228.516,154.747 227.553,158.800 226.811 C 166.046 225.484,169.565 224.846,170.600 224.671 C 171.260 224.560,173.240 224.171,175.000 223.808 C 176.760 223.444,179.100 222.990,180.200 222.797 C 181.300 222.605,183.685 222.167,185.500 221.824 C 193.800 220.255,195.541 219.932,197.600 219.579 C 198.810 219.372,201.150 218.933,202.800 218.604 C 206.945 217.777,209.689 217.250,213.200 216.607 C 214.850 216.305,217.820 215.756,219.800 215.388 C 221.780 215.019,224.210 214.575,225.200 214.401 C 226.190 214.227,228.530 213.778,230.400 213.405 C 235.993 212.287,237.645 211.976,241.000 211.409 C 250.359 209.828,253.051 209.130,252.603 208.406 C 252.469 208.188,252.079 206.972,251.736 205.705 C 251.394 204.437,250.965 202.860,250.783 202.200 C 250.150 199.904,249.154 196.191,248.799 194.800 C 248.602 194.030,248.174 192.500,247.847 191.400 C 247.228 189.318,246.646 187.196,244.936 180.800 C 243.615 175.857,243.384 175.030,242.596 172.400 C 242.233 171.190,241.794 169.570,241.619 168.800 C 241.444 168.030,240.898 165.960,240.404 164.200 C 239.295 160.248,238.848 158.601,238.394 156.800 C 238.200 156.030,237.750 154.410,237.394 153.200 C 237.038 151.990,236.320 149.380,235.798 147.400 C 235.277 145.420,234.554 142.810,234.193 141.600 C 233.832 140.390,233.385 138.770,233.200 138.000 C 233.015 137.230,232.572 135.610,232.216 134.400 C 231.860 133.190,231.019 130.130,230.347 127.600 C 229.675 125.070,228.962 122.415,228.762 121.700 C 228.563 120.985,228.233 119.744,228.029 118.941 C 227.825 118.139,227.420 117.332,227.129 117.148 C 226.334 116.644,93.306 116.704,92.994 117.209 M82.317 158.145 C 81.501 158.399,80.610 158.830,80.337 159.103 C 80.063 159.377,79.637 159.600,79.390 159.600 C 79.142 159.600,78.503 160.065,77.970 160.632 C 77.135 161.521,76.777 161.630,75.400 161.417 C 70.344 160.633,70.324 160.636,68.475 162.224 C 66.940 163.542,66.640 163.656,65.756 163.253 C 64.101 162.499,62.209 162.701,61.155 163.746 C 59.547 165.339,58.754 165.352,56.594 163.816 C 54.391 162.249,53.234 162.262,51.828 163.869 C 51.231 164.552,50.164 164.983,48.000 165.416 C 43.006 166.415,42.000 167.453,42.000 171.605 C 42.000 173.273,41.816 173.807,40.971 174.589 C 40.405 175.114,39.427 176.023,38.798 176.611 C 36.768 178.507,35.918 181.807,37.248 182.630 C 37.901 183.033,37.619 184.996,36.838 185.484 C 35.480 186.331,35.014 188.598,35.783 190.612 C 36.284 191.922,36.344 192.557,36.025 193.153 C 35.089 194.902,36.001 197.685,37.959 199.057 C 38.428 199.385,39.172 200.361,39.613 201.226 C 40.258 202.490,40.636 202.800,41.532 202.800 C 43.361 202.800,43.882 203.539,44.137 206.498 C 44.403 209.582,44.768 210.426,46.513 211.985 C 47.739 213.080,47.752 213.129,47.227 214.719 C 46.665 216.421,46.813 220.289,47.456 220.743 C 47.658 220.884,48.174 221.810,48.604 222.800 C 49.034 223.790,49.607 224.831,49.877 225.113 C 50.659 225.929,50.777 227.527,50.935 239.400 C 51.141 254.968,51.751 256.202,60.400 258.534 C 66.709 260.235,82.061 260.871,88.000 259.678 C 97.708 257.727,101.584 256.072,103.199 253.188 L 104.200 251.400 104.115 236.400 C 104.038 222.909,103.527 206.896,102.995 201.316 C 102.791 199.173,104.366 196.400,105.787 196.400 C 107.236 196.400,109.833 192.884,110.530 189.981 C 110.665 189.420,111.680 188.046,112.787 186.928 C 115.055 184.636,115.057 184.630,114.110 182.761 C 113.704 181.961,113.449 180.643,113.491 179.562 C 113.567 177.620,112.689 176.526,110.492 175.829 C 109.886 175.637,109.600 175.229,109.600 174.557 C 109.600 171.745,107.757 169.815,105.065 169.806 C 103.522 169.801,102.975 169.610,102.370 168.863 C 101.315 167.560,98.881 167.272,97.210 168.253 C 95.416 169.305,94.400 168.108,94.400 164.943 C 94.400 159.503,88.543 156.208,82.317 158.145 M71.483 210.495 C 71.387 210.993,71.305 210.680,71.301 209.800 C 71.296 208.920,71.375 208.513,71.475 208.895 C 71.575 209.278,71.579 209.998,71.483 210.495 M261.152 221.382 C 261.052 221.482,258.727 222.026,255.985 222.592 C 253.243 223.158,249.830 223.899,248.400 224.240 C 246.970 224.581,244.990 225.023,244.000 225.224 C 243.010 225.424,241.030 225.861,239.600 226.195 C 238.170 226.529,234.930 227.269,232.400 227.838 C 229.870 228.408,226.720 229.140,225.400 229.467 C 224.080 229.793,222.190 230.223,221.200 230.424 C 220.210 230.624,218.320 231.040,217.000 231.347 C 215.680 231.655,212.800 232.286,210.600 232.750 C 204.653 234.005,203.257 234.308,200.400 234.966 C 198.970 235.295,196.000 235.950,193.800 236.422 C 191.600 236.893,188.630 237.541,187.200 237.860 C 185.770 238.179,183.790 238.604,182.800 238.804 C 180.936 239.181,176.443 240.190,174.000 240.781 C 173.230 240.967,171.610 241.318,170.400 241.560 C 169.190 241.802,167.120 242.249,165.800 242.553 C 164.480 242.857,162.320 243.330,161.000 243.603 C 159.680 243.877,156.800 244.512,154.600 245.015 C 150.289 245.999,146.847 246.749,141.800 247.804 C 140.040 248.171,137.880 248.701,137.000 248.981 L 135.400 249.491 136.800 250.113 C 137.570 250.455,143.510 252.936,150.000 255.627 C 156.490 258.318,161.971 260.672,162.180 260.860 C 162.389 261.047,162.783 261.200,163.056 261.200 C 163.329 261.200,165.104 261.920,167.000 262.800 C 168.896 263.680,170.604 264.400,170.796 264.400 C 170.987 264.400,172.372 264.951,173.872 265.625 C 175.372 266.299,176.960 267.001,177.400 267.186 C 177.840 267.370,179.064 267.904,180.121 268.372 C 185.262 270.651,185.669 270.652,192.800 268.380 C 193.570 268.134,194.740 267.782,195.400 267.597 C 196.060 267.412,198.580 266.697,201.000 266.009 C 207.764 264.084,209.697 263.541,211.000 263.199 C 211.660 263.025,213.370 262.525,214.800 262.086 C 216.230 261.647,217.760 261.193,218.200 261.077 C 219.914 260.624,230.317 257.626,232.400 256.985 C 233.610 256.613,236.220 255.868,238.200 255.329 C 240.180 254.791,242.340 254.189,243.000 253.991 C 245.829 253.146,248.684 252.308,249.800 251.996 C 250.460 251.812,252.980 251.093,255.400 250.400 C 257.820 249.707,260.340 248.986,261.000 248.797 C 261.660 248.609,263.190 248.164,264.400 247.809 C 266.633 247.152,270.019 246.185,272.200 245.582 C 277.863 244.015,280.897 243.142,282.600 242.590 C 283.700 242.234,286.220 241.502,288.200 240.963 C 292.977 239.664,296.584 238.637,300.600 237.433 C 303.293 236.625,309.800 234.816,311.900 234.290 C 314.514 233.637,313.961 233.009,309.900 232.023 C 307.865 231.528,305.660 230.965,305.000 230.771 C 304.340 230.576,302.540 230.131,301.000 229.781 C 299.460 229.431,297.660 228.981,297.000 228.781 C 296.340 228.581,294.270 228.068,292.400 227.640 C 289.103 226.886,283.659 225.558,280.800 224.809 C 271.732 222.434,269.669 221.872,268.881 221.562 C 267.953 221.196,261.488 221.046,261.152 221.382 M285.200 251.472 C 283.550 252.008,279.860 253.177,277.000 254.070 C 274.140 254.963,271.080 255.920,270.200 256.197 C 269.320 256.475,267.250 257.100,265.600 257.587 C 263.950 258.075,261.790 258.742,260.800 259.070 C 259.810 259.398,258.778 259.735,258.507 259.818 C 257.996 259.975,258.250 261.200,258.793 261.200 C 258.962 261.200,261.328 262.259,264.050 263.553 C 266.773 264.847,269.270 265.991,269.600 266.095 C 269.930 266.199,272.450 265.486,275.200 264.510 C 277.950 263.535,281.460 262.312,283.000 261.792 C 284.540 261.272,288.410 259.917,291.600 258.782 C 294.790 257.647,298.120 256.492,299.000 256.215 C 300.515 255.740,301.484 254.400,300.314 254.400 C 300.014 254.400,297.641 253.500,295.040 252.400 C 289.717 250.149,289.370 250.116,285.200 251.472 " stroke="none" fill="#fafafa" fill-rule="evenodd"></path></g></svg>
