<?xml version="1.0" standalone="no"?>
<!DOCTYPE svg PUBLIC "-//W3C//DTD SVG 20010904//EN"
 "http://www.w3.org/TR/2001/REC-SVG-20010904/DTD/svg10.dtd">
<svg version="1.0" xmlns="http://www.w3.org/2000/svg"
 width="388.000000pt" height="388.000000pt" viewBox="0 0 388.000000 388.000000"
 preserveAspectRatio="xMidYMid meet">
<metadata>
Created by potrace 1.11, written by Peter Selinger 2001-2013
</metadata>
<g transform="translate(0.000000,388.000000) scale(0.100000,-0.100000)"
fill="#000000" stroke="none">
<path d="M613 3012 c-20 -13 -24 -55 -9 -112 7 -30 43 -165 80 -299 37 -134
68 -252 69 -262 1 -13 9 -19 24 -19 12 0 25 -4 28 -10 3 -5 14 -10 25 -10 20
0 12 34 -100 438 l-47 172 791 0 791 0 147 -537 c81 -296 145 -540 142 -542
-5 -6 -1426 -273 -1429 -269 -2 2 -8 76 -13 165 -13 221 -32 260 -142 288 -52
13 -64 42 -33 78 17 21 17 21 -1 7 -10 -8 -28 -35 -40 -59 -11 -25 -32 -51
-46 -58 -22 -11 -23 -13 -5 -14 17 -1 16 -2 -4 -8 -23 -6 -24 -8 -20 -101 2
-52 4 -196 4 -318 l0 -224 -27 -23 c-94 -81 -494 -79 -570 2 -22 23 -23 35
-28 181 -4 133 -8 162 -25 192 l-20 35 -3 -214 -2 -215 27 -23 c50 -41 146
-65 283 -70 189 -8 331 23 409 88 l24 19 -12 278 c-6 152 -14 294 -16 315 -3
21 -1 37 5 37 5 0 10 -9 10 -20 0 -24 4 -25 35 -4 38 25 67 15 89 -31 17 -33
20 -62 20 -191 1 -140 -1 -155 -20 -181 -20 -26 -49 -46 -84 -56 -12 -4 -15
-15 -12 -46 4 -38 6 -41 33 -41 16 0 45 6 63 14 19 8 38 10 42 6 10 -9 259
-114 1124 -476 58 -24 121 -44 140 -44 40 0 59 7 605 209 226 84 529 195 675
248 256 93 290 107 290 123 0 11 -97 36 -685 181 l-540 132 -205 -41 c-113
-22 -407 -84 -655 -137 -247 -53 -504 -107 -570 -121 -66 -13 -129 -27 -140
-30 l-20 -6 20 20 c21 21 153 50 1130 252 215 44 395 82 401 84 8 3 1 42 -22
123 -19 65 -81 294 -139 508 -136 507 -150 555 -172 576 -17 16 -77 19 -753
33 -823 18 -900 19 -917 8z m2392 -1386 c181 -45 283 -75 270 -79 -11 -4 -351
-101 -755 -217 -445 -128 -745 -209 -760 -206 -14 2 -142 54 -285 114 -143 60
-269 113 -280 117 l-20 7 20 9 c11 4 268 63 570 129 303 66 627 138 720 159
94 22 184 40 200 40 17 0 161 -32 320 -73z m46 -292 c35 -14 67 -29 71 -33 4
-4 -77 -36 -180 -72 l-187 -65 -77 35 c-43 19 -75 37 -72 40 5 6 351 118 370
120 6 1 39 -11 75 -25z"/>
<path d="M525 2414 l-30 -26 30 20 c17 10 37 22 45 25 13 5 13 6 0 6 -8 1 -28
-11 -45 -25z"/>
<path d="M660 2425 c14 -8 30 -14 35 -14 6 0 -1 6 -15 14 -14 8 -29 14 -35 14
-5 0 1 -6 15 -14z"/>
<path d="M410 2395 c-9 -11 -23 -14 -44 -11 l-31 6 28 -11 c22 -9 32 -8 45 4
9 8 28 17 42 20 l25 4 -26 2 c-15 0 -32 -6 -39 -14z"/>
<path d="M240 2383 c8 -3 24 -13 35 -22 20 -16 20 -16 1 7 -11 12 -26 22 -35
21 -14 0 -14 -1 -1 -6z"/>
<path d="M309 2363 c-13 -16 -12 -17 4 -4 9 7 17 15 17 17 0 8 -8 3 -21 -13z"/>
<path d="M710 2331 c0 -10 19 -25 25 -20 1 2 -3 10 -11 17 -8 7 -14 8 -14 3z"/>
<path d="M92 2280 c0 -19 2 -27 5 -17 2 9 2 25 0 35 -3 9 -5 1 -5 -18z"/>
<path d="M871 2283 c7 -12 15 -20 18 -17 3 2 -3 12 -13 22 -17 16 -18 16 -5
-5z"/>
<path d="M58 2223 c-8 -10 -18 -25 -22 -33 -4 -8 0 -6 8 5 9 11 24 26 33 33 9
6 12 12 6 12 -5 0 -17 -8 -25 -17z"/>
<path d="M931 2174 c0 -11 3 -14 6 -6 3 7 2 16 -1 19 -3 4 -6 -2 -5 -13z"/>
<path d="M16 2093 c-6 -14 -5 -15 5 -6 7 7 10 15 7 18 -3 3 -9 -2 -12 -12z"/>
<path d="M11 2065 c1 -19 18 -51 18 -35 0 8 -4 22 -9 30 -5 8 -9 11 -9 5z"/>
<path d="M1040 1327 c0 -24 32 -44 115 -75 44 -16 250 -96 458 -177 209 -80
381 -145 382 -143 2 2 -208 93 -468 202 -260 110 -475 201 -479 203 -5 2 -8
-2 -8 -10z"/>
<path d="M880 1255 c-41 -50 -168 -84 -335 -92 -161 -7 -255 7 -341 52 -61 32
-62 32 -68 11 -3 -11 -6 -45 -6 -74 l0 -53 45 -20 c188 -83 567 -70 706 24 33
22 34 26 34 85 0 68 -13 93 -35 67z"/>
</g>
</svg>
